<svg width="140" height="130" viewBox="0 0 140 130" fill="none" xmlns="http://www.w3.org/2000/svg">
    <circle cx="90" cy="61" r="50" fill="#AFCBDA"/>
    <circle cx="65" cy="65" r="65" fill="#F2F2F2"/>
    <circle cx="109" cy="20" r="9" fill="#E6E6E6"/>
    <path d="M87.5306 55.3062C88.0305 54.1434 88.1776 52.8522 87.956 51.5719C87.9552 51.5671 87.9535 51.5626 87.9526 51.558C87.9524 51.5568 87.9524 51.5557 87.9522 51.5545C87.8781 51.1315 87.7645 50.715 87.6146 50.3169L87.4751 49.9462C87.4715 49.9367 87.4677 49.9273 87.4638 49.9181C85.3303 44.9408 79.9294 42.208 74.6219 43.4202C74.2716 43.5003 73.9227 43.5868 73.5754 43.6779C70.8313 42.5655 67.9288 42 64.9436 42C60.265 42 55.7622 43.3965 51.9222 46.0386C48.1719 48.6187 45.2943 52.2062 43.6003 56.4133C43.4615 56.7581 43.6284 57.1501 43.9732 57.2889C44.3181 57.4276 44.7099 57.2609 44.8488 56.9161C45.2873 55.827 45.8107 54.7823 46.4116 53.789C48.5453 54.2951 50.8229 54.7136 53.2062 55.0347L51.4724 61.9955C51.3997 62.2877 51.4881 62.6002 51.7029 62.8111C51.7271 62.8348 51.7529 62.8564 51.7794 62.8768C51.7874 62.8829 51.7956 62.8886 51.8037 62.8944C51.8236 62.9087 51.8441 62.922 51.865 62.9344C51.8736 62.9395 51.8821 62.9448 51.8909 62.9496C51.9191 62.965 51.9478 62.9792 51.9775 62.9913C51.9784 62.9917 51.9793 62.9922 51.9802 62.9926C52.0106 63.0049 52.0419 63.0148 52.0734 63.0236C52.0829 63.0262 52.0925 63.0283 52.1022 63.0307C52.1258 63.0364 52.1497 63.041 52.1736 63.0446C52.1833 63.0461 52.1931 63.0478 52.2028 63.0489C52.2355 63.0527 52.2684 63.0553 52.3014 63.0553C52.3015 63.0553 52.3015 63.0553 52.3016 63.0553C52.3018 63.0553 52.3021 63.0553 52.3022 63.0553C52.3757 63.0553 52.4498 63.0457 52.5224 63.0263L53.4146 62.7863C53.3919 63.2711 53.3757 63.7588 53.3679 64.2498L53.3664 64.3381H43.3003C43.3413 62.981 43.5074 61.6312 43.7971 60.3167C43.8771 59.9537 43.6478 59.5947 43.2847 59.5147C42.922 59.4348 42.5629 59.6641 42.4827 60.027C42.1251 61.6498 41.9436 63.3229 41.9436 64.9999C41.9436 68.0917 42.5567 71.1014 43.7215 73.8831C43.3243 74.3449 42.9964 74.8703 42.7462 75.4524C42.2463 76.6152 42.0991 77.9065 42.3208 79.1867C42.3216 79.1915 42.3233 79.1959 42.3242 79.2007C42.3244 79.2019 42.3244 79.203 42.3246 79.2042C42.3987 79.6271 42.5123 80.0436 42.6621 80.4418L42.8016 80.8125C42.8052 80.8219 42.809 80.8313 42.813 80.8407C44.6072 85.0263 48.7113 87.6247 53.1281 87.6244C53.9635 87.6244 54.8108 87.5313 55.6549 87.3385C56.326 87.1852 56.9918 87.0105 57.6516 86.8171C59.9982 87.6013 62.4501 88 64.9436 88C69.4393 88 73.7942 86.7027 77.538 84.2483C81.1859 81.8568 84.0692 78.5008 85.8764 74.5431C86.0308 74.205 85.8818 73.8058 85.5438 73.6514C85.2057 73.4968 84.8064 73.646 84.6521 73.984C84.0846 75.2267 83.4038 76.4061 82.6217 77.5102C80.8015 77.1057 78.878 76.7641 76.8798 76.4899L78.8045 68.7631C78.8773 68.4708 78.7888 68.1584 78.5738 67.9474C78.3589 67.7364 78.0445 67.6541 77.7542 67.7324L76.421 68.0909C76.473 67.3157 76.5067 66.5344 76.519 65.7502L76.5205 65.6618H86.5872C86.5347 67.4034 86.2757 69.1261 85.8144 70.792C85.7153 71.1502 85.9252 71.5209 86.2833 71.6201C86.3434 71.6368 86.4039 71.6447 86.4633 71.6447C86.7582 71.6447 87.029 71.4492 87.1114 71.1511C87.6635 69.1573 87.9434 67.0877 87.9434 64.9998C87.9434 62.2287 87.4429 59.5038 86.4887 56.949C86.9168 56.469 87.2672 55.9189 87.5306 55.3062ZM86.2941 54.7746C86.1822 55.0352 86.0509 55.2809 85.9008 55.5111C85.3483 54.2917 84.6896 53.1264 83.9334 52.0224C83.9265 52.0124 83.9198 52.0024 83.913 51.9924C83.8351 51.879 83.7558 51.7665 83.6758 51.6544C83.6426 51.6079 83.6093 51.5615 83.5758 51.5152C83.539 51.4644 83.5034 51.413 83.4661 51.3624C84.5476 51.5739 85.6237 51.8519 86.6836 52.1938C86.7726 53.0852 86.6401 53.9701 86.2941 54.7746ZM71.3994 44.3247C71.3576 44.3387 71.3161 44.3535 71.2743 44.3676C71.1574 44.4071 71.0406 44.4469 70.9242 44.4877C70.9065 44.4939 70.8888 44.5004 70.8711 44.5065C70.7158 44.5612 70.5607 44.6162 70.4064 44.673C70.4067 44.6728 70.4072 44.6727 70.4075 44.6726C70.1161 44.3655 69.8177 44.0849 69.5138 43.829C70.1491 43.9656 70.7781 44.1305 71.3994 44.3247ZM65.7096 43.3966C66.868 43.5822 68.0018 44.1998 69.062 45.2003C67.8785 45.6924 66.7238 46.2487 65.6057 46.8654V43.38L65.7096 43.3966ZM64.1776 43.3967L64.2816 43.3801V47.6333C62.3038 48.8407 60.4569 50.2419 58.7842 51.8101C58.7572 51.8354 58.7301 51.8609 58.7032 51.8862C58.6091 51.975 58.5154 52.0641 58.4225 52.154C58.372 52.2028 58.322 52.2519 58.2719 52.301C58.1963 52.375 58.1206 52.4488 58.0458 52.5235C57.9434 52.6257 57.8422 52.7288 57.7412 52.8323C57.7175 52.8566 57.6932 52.8805 57.6696 52.9049L57.0437 51.2663C57.2855 50.6525 57.5428 50.0627 57.8164 49.5032C59.5574 45.9437 61.8166 43.7751 64.1776 43.3967ZM47.1805 52.6074C48.6609 50.4868 50.5178 48.6384 52.6848 47.1474C55.0265 45.5363 57.6304 44.4179 60.3716 43.8295C58.9715 45.0087 57.693 46.7424 56.6271 48.9215C56.537 49.1055 56.4487 49.2924 56.362 49.482L56.2583 49.2105C56.208 49.0793 56.1288 48.9664 56.0294 48.8776C56.0173 48.8668 56.0047 48.8568 55.992 48.8468C55.9873 48.8431 55.9829 48.8389 55.9781 48.8353C55.8194 48.7145 55.6194 48.6504 55.409 48.6631C55.0349 48.6858 54.7228 48.9454 54.6322 49.309L53.5281 53.7415C51.3152 53.4473 49.188 53.0668 47.1805 52.6074ZM52.9805 61.5093L55.5599 51.1538L56.6922 54.1176C56.7982 54.3955 57.036 54.5951 57.3281 54.6512C57.6205 54.7076 57.9157 54.61 58.1178 54.3908C58.2491 54.2483 58.382 54.107 58.5162 53.9669C58.5843 53.8958 58.6536 53.8258 58.7224 53.7553C58.7871 53.6891 58.8512 53.6224 58.9166 53.5567C59.0141 53.4588 59.1128 53.3618 59.2117 53.265C59.2473 53.2301 59.2826 53.1948 59.3186 53.1599C59.4398 53.0425 59.562 52.926 59.6853 52.8105C59.6973 52.7992 59.7091 52.7879 59.7212 52.7766C63.0357 49.6776 67.0951 47.2406 71.4717 45.7222C71.5004 45.7122 71.5292 45.7027 71.558 45.6929C71.7098 45.6407 71.8617 45.5893 72.0142 45.5393C72.0769 45.5189 72.1399 45.4993 72.2028 45.4791C72.3246 45.44 72.4462 45.4007 72.5685 45.3631C72.6782 45.3293 72.7884 45.2971 72.8984 45.2645C72.9772 45.2411 73.0558 45.2168 73.1348 45.1941C73.7258 45.0237 74.3218 44.8695 74.9221 44.7325C79.5904 43.6662 84.3403 46.0641 86.2214 50.435L86.3047 50.6559C84.8882 50.2438 83.4507 49.9429 82.0065 49.753C81.9801 49.7461 81.9533 49.7404 81.9258 49.7368C74.6922 48.8006 67.5583 50.7104 61.6283 55.1259C61.5596 55.177 61.491 55.2283 61.4227 55.28C61.3411 55.3418 61.2594 55.4033 61.1784 55.4661C61.0245 55.585 60.8718 55.7058 60.7201 55.8278C60.6735 55.8653 60.6272 55.9031 60.5808 55.9409C60.4097 56.0803 60.2394 56.2208 60.071 56.3643C59.8412 56.56 59.7314 56.8663 59.7845 57.1638C59.8376 57.4617 60.0468 57.7115 60.3303 57.8159L63.0247 58.8082L52.9805 61.5093ZM65.6056 71V65.6619H75.1964L75.1949 65.7531C75.18 66.6603 75.1379 67.5629 75.069 68.4547L65.6056 71ZM65.6056 72.7785L68.6796 73.9106C68.6615 73.9252 68.643 73.9393 68.6247 73.9539C68.5023 74.0516 68.3792 74.1477 68.2557 74.2431C68.1879 74.2954 68.1201 74.3478 68.0518 74.3995C67.9776 74.4558 67.9028 74.511 67.8281 74.5664C67.6755 74.6795 67.5223 74.7914 67.368 74.9012C67.3575 74.9086 67.3473 74.916 67.3368 74.9233C66.954 75.1946 66.5653 75.455 66.1716 75.7055C66.0125 75.7032 65.8537 75.7002 65.6947 75.6989L65.6056 75.6982V72.7785ZM65.6056 64.338V55.7976L65.6947 55.7969C68.5198 55.7742 71.3264 55.623 74.0362 55.3472L74.1145 55.3393L74.1326 55.4158C74.7869 58.1715 75.1443 61.1426 75.1949 64.2467L75.1964 64.338H65.6056ZM65.6056 54.4737V54.1635C67.9135 52.8909 70.3748 51.9647 72.905 51.4245C73.2141 52.2235 73.4963 53.0634 73.7472 53.9406L73.7768 54.044L73.6698 54.0546C71.0843 54.3101 68.4015 54.4509 65.696 54.4731L65.6056 54.4737ZM75.1865 53.8893L75.1101 53.8983L75.0896 53.8242C74.8342 52.9038 74.546 52.0199 74.2286 51.1772C74.3447 51.1586 74.4609 51.1407 74.5772 51.1238C74.5857 51.1225 74.5942 51.1212 74.6026 51.1201C76.873 50.7935 79.1933 50.7699 81.4996 51.0447C81.5228 51.0722 81.5463 51.0996 81.5694 51.1274C81.6202 51.1881 81.6704 51.2492 81.7205 51.3105C81.7657 51.3658 81.8107 51.4212 81.8552 51.4767C81.9152 51.5517 81.9747 51.6272 82.0336 51.703C82.0657 51.7441 82.0978 51.7853 82.1296 51.8266C82.2052 51.9252 82.2801 52.0246 82.354 52.1244C82.3677 52.1429 82.3816 52.1613 82.3952 52.1798C82.4993 52.3213 82.601 52.4642 82.7016 52.608C80.3438 53.1476 77.8208 53.5791 75.1865 53.8893ZM56.2315 76.1118L56.1571 76.119L56.1365 76.0471C55.251 72.9472 54.7517 69.3876 54.6923 65.753L54.6907 65.6618H64.2817V75.698L64.1926 75.6987C61.5061 75.7206 58.8276 75.8596 56.2315 76.1118ZM63.8566 77.0274C62.1723 77.884 60.4137 78.5591 58.6121 79.038C58.5129 79.0643 58.4134 79.0901 58.3138 79.1152C58.2291 79.1367 58.1443 79.158 58.0594 79.1785C57.9093 79.2148 57.7588 79.2499 57.608 79.2835C57.5574 79.2948 57.5069 79.306 57.4562 79.317C57.4025 79.3286 57.3486 79.3389 57.2948 79.3503C57.0458 78.7633 56.8116 78.1506 56.5955 77.5168L56.5587 77.409L56.6721 77.3984C59.0107 77.1801 61.4262 77.0561 63.8566 77.0274ZM55.9624 79.594C55.8679 79.6089 55.7733 79.6243 55.6786 79.638C55.5857 79.6515 55.4926 79.6635 55.3996 79.6759C55.326 79.6858 55.2522 79.6952 55.1784 79.7045C53.1699 79.9536 51.1262 79.9673 49.0911 79.7488C49.0634 79.7191 49.0356 79.6895 49.008 79.6596C48.9537 79.6008 48.9001 79.5416 48.8466 79.4823C48.7896 79.4191 48.7328 79.3556 48.6767 79.2918C48.6264 79.2347 48.5767 79.1771 48.5271 79.1195C48.469 79.0521 48.4109 78.9846 48.3536 78.9165C48.3098 78.8642 48.2666 78.8116 48.2233 78.759C48.2002 78.7309 48.1771 78.7025 48.1541 78.6743C50.3611 78.2062 52.7058 77.8303 55.1388 77.5572L55.2113 77.549L55.2341 77.6183C55.4578 78.3003 55.7018 78.96 55.9624 79.594ZM54.6908 64.338L54.6924 64.2467C54.7023 63.6339 54.7248 63.0265 54.7586 62.4247L64.2817 59.8634V64.338H54.6908ZM64.2817 55.7975V57.8367L61.5971 56.8481C61.6186 56.8308 61.6406 56.814 61.6622 56.7966C61.7806 56.7022 61.8995 56.6094 62.019 56.5172C62.0921 56.4607 62.1653 56.4043 62.2389 56.3486C62.2879 56.3115 62.3373 56.2754 62.3864 56.2387C62.5963 56.0821 62.8086 55.9297 63.0221 55.7795C63.4118 55.7876 63.802 55.7938 64.1927 55.7969L64.2817 55.7975ZM43.3007 65.6619H53.3667L53.3681 65.7503C53.4261 69.4044 53.9189 73.0039 54.7932 76.1595L54.8211 76.2606L54.717 76.2726C52.1037 76.5748 49.6018 76.9917 47.268 77.5105C46.4328 76.3324 45.7167 75.0739 45.1293 73.7451C45.1252 73.736 45.1201 73.7276 45.1157 73.7188C44.007 71.199 43.3853 68.4717 43.3007 65.6619ZM43.9826 75.984C44.0906 75.7328 44.2164 75.4953 44.359 75.2726C44.9083 76.3714 45.5472 77.4282 46.2724 78.4333C46.2874 78.454 46.3026 78.4746 46.3177 78.4953C46.4165 78.6314 46.517 78.7666 46.6189 78.9007C46.6479 78.9389 46.6772 78.9769 46.7066 79.015C46.7966 79.1318 46.8878 79.2479 46.9802 79.3632C47.0007 79.3887 47.0204 79.4151 47.041 79.4406C45.8827 79.2243 44.7294 78.9314 43.5932 78.5648C43.5041 77.6735 43.6367 76.7885 43.9826 75.984ZM59.9218 86.0682C59.9991 86.0397 60.0759 86.0103 60.153 85.9813C60.2244 86.0449 60.2962 86.1066 60.3683 86.1673C60.2192 86.1353 60.0701 86.1034 59.9218 86.0682ZM61.5551 85.4192C62.4856 85.0226 63.3954 84.5877 64.2816 84.1149V86.62L64.1777 86.6034C63.2812 86.4597 62.3995 86.0573 61.5551 85.4192ZM65.7096 86.6032L65.6057 86.6199V83.3699C68.1835 81.8439 70.5406 79.9911 72.6072 77.8539L72.8945 78.6058C72.6379 79.2669 72.3626 79.9 72.0708 80.4966C70.3297 84.0562 68.0706 86.225 65.7096 86.6032ZM81.7368 78.6739C80.3377 80.3904 78.6766 81.8923 76.7998 83.1227C74.5663 84.5871 72.1011 85.6131 69.5174 86.1687C70.9168 84.9895 72.1945 83.2565 73.2599 81.0784C73.3686 80.8562 73.4745 80.6284 73.5787 80.3976L74.0183 81.5481C74.152 81.898 74.4919 82.1172 74.8673 82.0955C75.2414 82.073 75.5535 81.8136 75.6444 81.4497L76.5579 77.7822C78.3479 78.0247 80.0817 78.323 81.7368 78.6739ZM77.2962 69.2494L74.7167 79.605L73.5846 76.6413C73.4785 76.3633 73.2409 76.1638 72.9488 76.1076C72.6564 76.0512 72.3612 76.1486 72.1591 76.368C72.0271 76.5113 71.8934 76.6533 71.7586 76.7942C71.733 76.8209 71.7069 76.8472 71.6812 76.8739C71.5666 76.9929 71.4513 77.1113 71.3346 77.2284C71.3187 77.2442 71.3029 77.2599 71.287 77.2758C67.8791 80.683 63.6309 83.3345 58.9953 84.9707C58.8903 85.0077 58.7849 85.0437 58.6795 85.0795C58.6144 85.1018 58.5493 85.1242 58.484 85.146C58.3413 85.1936 58.1983 85.2402 58.0549 85.2861C58.0269 85.2951 57.9989 85.3041 57.9708 85.3129C57.8102 85.3637 57.6492 85.4134 57.4875 85.4619C56.7836 85.6731 56.0727 85.8626 55.3551 86.0265C50.6868 87.0925 45.937 84.695 44.0559 80.3241L43.9727 80.1031C45.5054 80.549 47.0626 80.8648 48.6263 81.0507C48.6497 81.056 48.6728 81.0625 48.6969 81.0653C49.7803 81.192 50.8607 81.2547 51.9359 81.2546C53.2797 81.2545 54.6138 81.1548 55.9311 80.961C55.9651 80.956 55.9991 80.9511 56.0331 80.946C56.1475 80.9287 56.2617 80.911 56.3758 80.8923C56.4402 80.8817 56.5044 80.8705 56.5689 80.8594C56.7323 80.8315 56.8953 80.8021 57.0582 80.7711C57.1109 80.7611 57.1638 80.7517 57.2165 80.7413C57.2404 80.7366 57.2641 80.7314 57.288 80.7267C57.3927 80.7058 57.4974 80.6843 57.602 80.6623C57.6589 80.6503 57.7159 80.6378 57.7727 80.6253C61.7799 79.7527 65.5913 77.9808 68.9877 75.3777C69.0376 75.3396 69.0877 75.3018 69.1373 75.2634C69.2051 75.2107 69.2725 75.1573 69.34 75.1039C69.4318 75.0314 69.5233 74.9584 69.6144 74.8848C69.6668 74.8425 69.7191 74.8003 69.7712 74.7575C69.9172 74.6378 70.0626 74.5172 70.2066 74.3945C70.4363 74.1988 70.5461 73.8926 70.4931 73.5951C70.4401 73.2973 70.231 73.0473 69.9473 72.9429L67.253 71.9506L77.2962 69.2494ZM86.5863 64.338H76.5205L76.519 64.2496C76.4692 61.1116 76.1137 58.0972 75.4625 55.2897L75.4399 55.1922L75.5391 55.1802C78.3355 54.8439 81.0013 54.3771 83.4714 53.7914C85.391 56.9642 86.4719 60.5957 86.5863 64.338Z" fill="#5F6975"/>
</svg>
