<svg width="608" height="354" viewBox="0 0 608 354" fill="none" xmlns="http://www.w3.org/2000/svg">
    <path d="M296.535 68.0031C301.154 65.3323 306.846 65.3323 311.465 68.0031L394.535 116.028C399.154 118.698 402 123.634 402 128.976V225.025C402 230.366 399.154 235.302 394.535 237.972L311.465 285.997C306.846 288.668 301.154 288.668 296.535 285.997L213.465 237.972C208.846 235.302 206 230.366 206 225.025V128.976C206 123.634 208.846 118.698 213.465 116.028L296.535 68.0031Z" fill="#7EB67D"/>
    <path d="M90.5345 68.0031C95.1542 65.3323 100.846 65.3323 105.465 68.0031L188.535 116.028C193.154 118.698 196 123.634 196 128.976V225.025C196 230.366 193.154 235.302 188.535 237.972L105.465 285.997C100.846 288.668 95.1542 288.668 90.5345 285.997L7.46546 237.972C2.84581 235.302 0 230.366 0 225.025V128.976C0 123.634 2.84582 118.698 7.46546 116.028L90.5345 68.0031Z" fill="#7D9FB6"/>
    <path d="M197.267 1.01055C199.577 -0.336851 202.423 -0.33685 204.733 1.01055L246.267 25.2391C248.577 26.5865 250 29.0766 250 31.7714V80.2286C250 82.9234 248.577 85.4135 246.267 86.7609L204.733 110.989C202.423 112.337 199.577 112.337 197.267 110.989L155.733 86.7609C153.423 85.4135 152 82.9234 152 80.2286V31.7714C152 29.0766 153.423 26.5865 155.733 25.2391L197.267 1.01055Z" fill="#5F6975"/>
    <path d="M403.267 243.011C405.577 241.663 408.423 241.663 410.733 243.011L452.267 267.239C454.577 268.587 456 271.077 456 273.771V322.229C456 324.923 454.577 327.413 452.267 328.761L410.733 352.989C408.423 354.337 405.577 354.337 403.267 352.989L361.733 328.761C359.423 327.413 358 324.923 358 322.229V273.771C358 271.077 359.423 268.587 361.733 267.239L403.267 243.011Z" fill="#E6E6E6"/>
    <path d="M177.432 56.9893C177.432 57.7594 177.338 58.4613 177.151 59.0947C176.969 59.7236 176.682 60.266 176.29 60.7217C175.898 61.1774 175.395 61.5283 174.779 61.7744C174.164 62.016 173.428 62.1367 172.571 62.1367C171.733 62.1367 171.006 62.016 170.391 61.7744C169.78 61.5283 169.276 61.1797 168.88 60.7285C168.483 60.2728 168.189 59.7282 167.998 59.0947C167.807 58.4613 167.711 57.7549 167.711 56.9756C167.711 55.9365 167.882 55.0342 168.224 54.2686C168.57 53.4984 169.103 52.9036 169.823 52.4844C170.543 52.0605 171.464 51.8486 172.585 51.8486C173.724 51.8486 174.649 52.0605 175.36 52.4844C176.076 52.9082 176.6 53.5052 176.933 54.2754C177.265 55.0456 177.432 55.9502 177.432 56.9893ZM170.555 56.9893C170.555 57.5908 170.623 58.1081 170.76 58.541C170.896 58.974 171.113 59.3066 171.409 59.5391C171.705 59.7715 172.093 59.8877 172.571 59.8877C173.068 59.8877 173.462 59.7715 173.754 59.5391C174.05 59.3066 174.262 58.974 174.39 58.541C174.522 58.1081 174.588 57.5908 174.588 56.9893C174.588 56.0869 174.438 55.3737 174.137 54.8496C173.836 54.3255 173.319 54.0635 172.585 54.0635C172.097 54.0635 171.703 54.182 171.402 54.4189C171.106 54.6559 170.89 54.9932 170.753 55.4307C170.621 55.8682 170.555 56.3877 170.555 56.9893ZM192.313 62H179.236V52.0059H181.95V59.7852H184.445V52.0059H187.104V59.7852H189.593V52.0059H192.313V62ZM194.467 52.0059H196.982V56.5791C196.982 56.7842 196.98 57.0007 196.976 57.2285C196.971 57.4518 196.964 57.6729 196.955 57.8916C196.946 58.1104 196.935 58.3177 196.921 58.5137C196.907 58.7096 196.891 58.8828 196.873 59.0332H196.928L201.043 52.0059H204.14V62H201.617V57.6729C201.617 57.486 201.619 57.2741 201.624 57.0371C201.633 56.8001 201.642 56.5563 201.651 56.3057C201.665 56.055 201.679 55.8135 201.692 55.5811C201.711 55.3486 201.729 55.1458 201.747 54.9727H201.686L197.57 62H194.467V52.0059ZM206.307 62V52.0059H212.883V54.1729H209.007V55.5332H209.984C210.841 55.5332 211.545 55.6631 212.097 55.9229C212.653 56.1826 213.065 56.5449 213.334 57.0098C213.603 57.4701 213.737 58.0033 213.737 58.6094C213.737 59.6621 213.382 60.4915 212.671 61.0977C211.96 61.6992 210.971 62 209.704 62H206.307ZM209.007 59.8604H209.752C210.194 59.8604 210.518 59.7646 210.723 59.5732C210.932 59.3773 211.037 59.0993 211.037 58.7393C211.037 58.5068 210.982 58.3132 210.873 58.1582C210.768 57.9987 210.622 57.8779 210.436 57.7959C210.249 57.7139 210.039 57.6729 209.807 57.6729H209.007V59.8604ZM224.107 62H221.052L218.085 56.9346V62H215.371V52.0059H218.085V56.8457L220.942 52.0059H223.909L220.826 56.7773L224.107 62ZM231.265 62L230.772 60.127H227.525L227.02 62H224.053L227.313 51.9648H230.916L234.218 62H231.265ZM230.212 57.9121L229.781 56.2715C229.736 56.0938 229.67 55.8408 229.583 55.5127C229.496 55.18 229.41 54.8382 229.323 54.4873C229.241 54.1318 229.177 53.8402 229.132 53.6123C229.091 53.8402 229.032 54.1227 228.954 54.46C228.881 54.7926 228.804 55.123 228.722 55.4512C228.644 55.7793 228.576 56.0527 228.517 56.2715L228.086 57.9121H230.212Z" fill="white"/>
    <path d="M373.433 289.341C373.205 289.341 373.001 289.39 372.822 289.487C372.643 289.582 372.49 289.72 372.363 289.902C372.236 290.085 372.139 290.308 372.07 290.571C372.005 290.832 371.973 291.128 371.973 291.46C371.973 291.909 372.03 292.287 372.144 292.593C372.257 292.899 372.43 293.13 372.661 293.286C372.896 293.442 373.188 293.521 373.54 293.521C373.859 293.521 374.165 293.477 374.458 293.389C374.754 293.301 375.052 293.195 375.352 293.071V294.702C375.036 294.842 374.712 294.943 374.38 295.005C374.051 295.067 373.701 295.098 373.33 295.098C372.555 295.098 371.921 294.945 371.426 294.639C370.934 294.329 370.571 293.901 370.337 293.354C370.106 292.808 369.99 292.173 369.99 291.45C369.99 290.91 370.065 290.415 370.215 289.966C370.368 289.517 370.591 289.128 370.884 288.799C371.177 288.467 371.538 288.211 371.968 288.032C372.401 287.85 372.896 287.759 373.452 287.759C373.797 287.759 374.16 287.799 374.541 287.881C374.925 287.959 375.299 288.086 375.664 288.262L375.073 289.78C374.813 289.657 374.549 289.552 374.282 289.468C374.015 289.383 373.732 289.341 373.433 289.341ZM379.897 295H377.969V289.438H376.226V287.861H381.636V289.438H379.897V295ZM385.127 287.861C386.032 287.861 386.709 288.058 387.158 288.452C387.611 288.846 387.837 289.406 387.837 290.132C387.837 290.457 387.79 290.77 387.695 291.069C387.604 291.369 387.453 291.636 387.241 291.87C387.033 292.104 386.755 292.29 386.406 292.427C386.061 292.563 385.635 292.632 385.127 292.632H384.585V295H382.656V287.861H385.127ZM385.083 289.419H384.585V291.06H384.966C385.132 291.06 385.286 291.032 385.43 290.977C385.573 290.918 385.687 290.825 385.771 290.698C385.859 290.568 385.903 290.396 385.903 290.181C385.903 289.956 385.837 289.774 385.703 289.634C385.57 289.491 385.363 289.419 385.083 289.419ZM393.354 295L393.003 293.662H390.684L390.322 295H388.203L390.532 287.832H393.105L395.464 295H393.354ZM392.603 292.08L392.295 290.908C392.262 290.781 392.215 290.601 392.153 290.366C392.091 290.129 392.03 289.884 391.968 289.634C391.909 289.38 391.864 289.172 391.831 289.009C391.802 289.172 391.759 289.373 391.704 289.614C391.652 289.852 391.597 290.088 391.538 290.322C391.483 290.557 391.434 290.752 391.392 290.908L391.084 292.08H392.603ZM402.358 295H400.42V292.09H398.179V295H396.24V287.861H398.179V290.508H400.42V287.861H402.358V295ZM403.906 287.861H405.703V291.128C405.703 291.274 405.701 291.429 405.698 291.592C405.695 291.751 405.69 291.909 405.684 292.065C405.677 292.222 405.669 292.37 405.659 292.51C405.649 292.65 405.638 292.773 405.625 292.881H405.664L408.604 287.861H410.815V295H409.014V291.909C409.014 291.776 409.015 291.624 409.019 291.455C409.025 291.286 409.032 291.112 409.038 290.933C409.048 290.754 409.058 290.581 409.067 290.415C409.08 290.249 409.093 290.104 409.106 289.98H409.062L406.123 295H403.906V287.861ZM419.722 293.418V297.222H417.842V295H412.363V287.861H414.302V293.418H416.284V287.861H418.223V293.418H419.722ZM425.054 295L424.702 293.662H422.383L422.021 295H419.902L422.231 287.832H424.805L427.163 295H425.054ZM424.302 292.08L423.994 290.908C423.962 290.781 423.914 290.601 423.853 290.366C423.791 290.129 423.729 289.884 423.667 289.634C423.608 289.38 423.563 289.172 423.53 289.009C423.501 289.172 423.459 289.373 423.403 289.614C423.351 289.852 423.296 290.088 423.237 290.322C423.182 290.557 423.133 290.752 423.091 290.908L422.783 292.08H424.302ZM436.655 295H434.717V292.09H432.476V295H430.537V287.861H432.476V290.508H434.717V287.861H436.655V295ZM442.441 295H438.203V287.861H442.441V289.409H440.132V290.532H442.271V292.08H440.132V293.428H442.441V295ZM388.413 309H386.475V306.09H384.233V309H382.295V301.861H384.233V304.508H386.475V301.861H388.413V309ZM394.341 309L393.989 307.662H391.67L391.309 309H389.189L391.519 301.832H394.092L396.45 309H394.341ZM393.589 306.08L393.281 304.908C393.249 304.781 393.201 304.601 393.14 304.366C393.078 304.129 393.016 303.884 392.954 303.634C392.896 303.38 392.85 303.172 392.817 303.009C392.788 303.172 392.746 303.373 392.69 303.614C392.638 303.852 392.583 304.088 392.524 304.322C392.469 304.557 392.42 304.752 392.378 304.908L392.07 306.08H393.589ZM397.227 301.861H399.023V305.128C399.023 305.274 399.022 305.429 399.019 305.592C399.015 305.751 399.01 305.909 399.004 306.065C398.997 306.222 398.989 306.37 398.979 306.51C398.97 306.65 398.958 306.773 398.945 306.881H398.984L401.924 301.861H404.136V309H402.334V305.909C402.334 305.776 402.336 305.624 402.339 305.455C402.345 305.286 402.352 305.112 402.358 304.933C402.368 304.754 402.378 304.581 402.388 304.415C402.401 304.249 402.414 304.104 402.427 303.98H402.383L399.443 309H397.227V301.861ZM403.325 299.469C403.286 299.833 403.18 300.156 403.008 300.436C402.835 300.715 402.578 300.935 402.236 301.095C401.895 301.251 401.452 301.329 400.908 301.329C400.381 301.329 399.946 301.261 399.604 301.124C399.263 300.987 399.004 300.782 398.828 300.509C398.652 300.232 398.548 299.885 398.516 299.469H400.107C400.127 299.824 400.205 300.064 400.342 300.191C400.479 300.315 400.667 300.377 400.908 300.377C401.123 300.377 401.304 300.312 401.45 300.182C401.597 300.051 401.683 299.814 401.709 299.469H403.325ZM411.895 301.861V307.418H412.871V311.222H410.991V309H406.831V311.222H404.951V307.418H405.542C405.763 307.044 405.964 306.642 406.143 306.212C406.322 305.782 406.478 305.331 406.611 304.859C406.748 304.387 406.859 303.901 406.943 303.399C407.031 302.895 407.095 302.382 407.134 301.861H411.895ZM409.951 303.438H408.682C408.649 303.787 408.602 304.132 408.54 304.474C408.478 304.812 408.4 305.147 408.306 305.479C408.215 305.812 408.109 306.139 407.988 306.461C407.868 306.783 407.733 307.102 407.583 307.418H409.951V303.438ZM418.066 309H413.828V301.861H418.066V303.409H415.757V304.532H417.896V306.08H415.757V307.428H418.066V309ZM425.435 309H423.496V306.09H421.255V309H419.316V301.861H421.255V304.508H423.496V301.861H425.435V309ZM431.362 309L431.011 307.662H428.691L428.33 309H426.211L428.54 301.832H431.113L433.472 309H431.362ZM430.61 306.08L430.303 304.908C430.27 304.781 430.223 304.601 430.161 304.366C430.099 304.129 430.037 303.884 429.976 303.634C429.917 303.38 429.871 303.172 429.839 303.009C429.81 303.172 429.767 303.373 429.712 303.614C429.66 303.852 429.604 304.088 429.546 304.322C429.491 304.557 429.442 304.752 429.399 304.908L429.092 306.08H430.61Z" fill="#5F6975"/>
    <path d="M502.535 68.0031C507.154 65.3323 512.846 65.3323 517.465 68.0031L600.535 116.028C605.154 118.698 608 123.634 608 128.976V225.025C608 230.366 605.154 235.302 600.535 237.972L517.465 285.997C512.846 288.668 507.154 288.668 502.535 285.997L419.465 237.972C414.846 235.302 412 230.366 412 225.025V128.976C412 123.634 414.846 118.698 419.465 116.028L502.535 68.0031Z" fill="#7D9FB6"/>
    <path d="M135.717 201.99H118.49V227.488H111.723V201.99H61V196.521L111.244 127H118.49V195.633H135.717V201.99ZM111.723 195.633V157.215C111.723 154.389 111.723 151.951 111.723 149.9C111.768 147.85 111.814 146.004 111.859 144.363C111.905 142.677 111.951 141.059 111.996 139.51C112.042 137.96 112.087 136.365 112.133 134.725H111.723C110.447 136.912 109.239 138.94 108.1 140.809C107.006 142.632 105.593 144.705 103.861 147.029L68.5879 195.633H111.723Z" fill="white"/>
    <path d="M547.717 201.99H530.49V227.488H523.723V201.99H473V196.521L523.244 127H530.49V195.633H547.717V201.99ZM523.723 195.633V157.215C523.723 154.389 523.723 151.951 523.723 149.9C523.768 147.85 523.814 146.004 523.859 144.363C523.905 142.677 523.951 141.059 523.996 139.51C524.042 137.96 524.087 136.365 524.133 134.725H523.723C522.447 136.912 521.239 138.94 520.1 140.809C519.006 142.632 517.593 144.705 515.861 147.029L480.588 195.633H523.723Z" fill="white"/>
    <path d="M335.779 177.27C335.779 185.609 335.141 192.992 333.865 199.418C332.589 205.844 330.652 211.244 328.055 215.619C325.457 219.994 322.153 223.298 318.143 225.531C314.132 227.764 309.393 228.881 303.924 228.881C296.997 228.881 291.163 226.944 286.424 223.07C281.684 219.197 278.084 213.432 275.623 205.775C273.208 198.119 272 188.617 272 177.27C272 167.152 273.025 158.243 275.076 150.541C277.173 142.839 280.568 136.824 285.262 132.494C289.956 128.165 296.199 126 303.992 126C311.74 126 317.938 128.119 322.586 132.357C327.28 136.596 330.652 142.566 332.703 150.268C334.754 157.924 335.779 166.924 335.779 177.27ZM278.973 177.27C278.973 187.523 279.861 196.023 281.639 202.768C283.416 209.467 286.15 214.48 289.842 217.807C293.533 221.133 298.227 222.797 303.924 222.797C309.803 222.797 314.565 221.133 318.211 217.807C321.857 214.48 324.523 209.444 326.209 202.699C327.941 195.954 328.807 187.478 328.807 177.27C328.807 167.882 328.055 159.815 326.551 153.07C325.092 146.326 322.563 141.153 318.963 137.553C315.363 133.952 310.372 132.152 303.992 132.152C297.749 132.152 292.804 133.998 289.158 137.689C285.512 141.381 282.892 146.599 281.297 153.344C279.747 160.089 278.973 168.064 278.973 177.27Z" fill="white"/>
</svg>