<svg width="136" height="131" viewBox="0 0 136 131" fill="none" xmlns="http://www.w3.org/2000/svg">
    <circle cx="85" cy="81" r="50" fill="#AFCBDA"/>
    <circle cx="71" cy="65" r="65" fill="#F2F2F2"/>
    <circle cx="9" cy="38" r="9" fill="#E6E6E6"/>
    <path d="M83.2238 81.0102C83.0425 81.0102 82.8687 81.0822 82.7405 81.2104C82.6123 81.3386 82.5403 81.5125 82.5403 81.6938C82.5403 81.8751 82.6123 82.049 82.7405 82.1772C82.8687 82.3054 83.0425 82.3774 83.2238 82.3774C83.653 82.3779 84.0644 82.5486 84.3679 82.8521C84.6714 83.1555 84.8421 83.567 84.8426 83.9961C84.8426 84.1774 84.9146 84.3513 85.0428 84.4795C85.171 84.6077 85.3449 84.6797 85.5262 84.6797C85.7075 84.6797 85.8814 84.6077 86.0096 84.4795C86.1378 84.3513 86.2098 84.1774 86.2098 83.9961C86.2089 83.2045 85.894 82.4456 85.3342 81.8858C84.7744 81.326 84.0155 81.0111 83.2238 81.0102Z" fill="#5F6975"/>
    <path d="M79.2449 77.7949C78.4452 77.796 77.6785 78.1141 77.113 78.6797C76.5475 79.2452 76.2294 80.012 76.2285 80.8117C76.2285 80.993 76.3005 81.1669 76.4287 81.2951C76.5569 81.4233 76.7308 81.4953 76.9121 81.4953C77.0934 81.4953 77.2673 81.4233 77.3955 81.2951C77.5237 81.1669 77.5957 80.993 77.5957 80.8117C77.5961 80.3744 77.77 79.9551 78.0792 79.6459C78.3884 79.3366 78.8076 79.1626 79.2449 79.1621C79.4262 79.1621 79.6001 79.0901 79.7283 78.9619C79.8565 78.8337 79.9285 78.6598 79.9285 78.4785C79.9285 78.2972 79.8565 78.1233 79.7283 77.9951C79.6001 77.8669 79.4262 77.7949 79.2449 77.7949Z" fill="#5F6975"/>
    <path d="M64.9817 70.4113V71.9777C64.9817 72.159 65.0537 72.3329 65.1819 72.4611C65.3101 72.5893 65.4839 72.6613 65.6652 72.6613C65.8465 72.6613 66.0204 72.5893 66.1486 72.4611C66.2768 72.3329 66.3488 72.159 66.3488 71.9777V70.4113C67.6521 70.2443 68.8501 69.6086 69.7189 68.623C70.5878 67.6373 71.0682 66.369 71.0703 65.0551C71.0703 64.8738 70.9983 64.6999 70.8701 64.5717C70.7419 64.4435 70.568 64.3715 70.3867 64.3715C69.6229 64.3721 68.8679 64.535 68.1717 64.8494C67.4756 65.1638 66.8543 65.6226 66.3488 66.1953V64.9609C67.2724 63.9336 67.7666 62.5911 67.7294 61.2101C67.6921 59.8292 67.1264 58.5152 66.1488 57.5391C66.0206 57.411 65.8467 57.339 65.6654 57.339C65.4842 57.339 65.3103 57.411 65.182 57.5391C64.2074 58.5168 63.6437 59.8302 63.6065 61.2102C63.5692 62.5901 64.0612 63.9321 64.9817 64.9609V66.1953C64.4765 65.6224 63.8552 65.1635 63.1591 64.8491C62.463 64.5346 61.708 64.3718 60.9442 64.3715C60.7629 64.3715 60.589 64.4435 60.4608 64.5717C60.3326 64.6999 60.2606 64.8738 60.2606 65.0551C60.2627 66.369 60.743 67.6372 61.6118 68.6228C62.4806 69.6085 63.6784 70.2442 64.9817 70.4113ZM69.6328 65.809C69.4804 66.6048 69.0927 67.3366 68.5198 67.9097C67.947 68.4828 67.2153 68.8708 66.4195 69.0234C66.5719 68.2276 66.9597 67.4958 67.5325 66.9227C68.1054 66.3497 68.837 65.9617 69.6328 65.809ZM65.666 59.0902C66.1214 59.7605 66.3648 60.5522 66.3648 61.3625C66.3648 62.1728 66.1214 62.9645 65.666 63.6348C65.2108 62.9641 64.9674 62.1722 64.9674 61.3616C64.9673 60.551 65.2105 59.7591 65.6656 59.0883L65.666 59.0902ZM64.9113 69.0234C64.1158 68.8708 63.3844 68.483 62.8117 67.9102C62.2389 67.3375 61.8511 66.6061 61.6984 65.8106C62.4939 65.9632 63.2254 66.351 63.7981 66.9238C64.3709 67.4965 64.7587 68.2279 64.9113 69.0234Z" fill="#5F6975"/>
    <path d="M55.1496 65C55.1496 67.0799 55.7662 69.1131 56.9217 70.8425C58.0772 72.5719 59.7196 73.9199 61.6412 74.7158C63.5627 75.5118 65.6772 75.7201 67.7171 75.3144C69.7571 74.9086 71.6309 73.9071 73.1016 72.4363C74.5723 70.9656 75.5739 69.0918 75.9796 67.0519C76.3854 65.0119 76.1771 62.8975 75.3811 60.9759C74.5851 59.0543 73.2372 57.412 71.5078 56.2565C69.7784 55.101 67.7452 54.4843 65.6653 54.4844C62.8773 54.4876 60.2045 55.5965 58.2331 57.5679C56.2618 59.5392 55.1528 62.2121 55.1496 65ZM65.6653 55.8516C67.4746 55.8516 69.2434 56.3881 70.7479 57.3934C72.2523 58.3986 73.4249 59.8274 74.1173 61.499C74.8097 63.1707 74.9909 65.0101 74.6379 66.7848C74.2849 68.5594 73.4136 70.1895 72.1342 71.4689C70.8547 72.7484 69.2246 73.6197 67.45 73.9727C65.6754 74.3256 63.836 74.1445 62.1643 73.4521C60.4926 72.7596 59.0638 71.587 58.0586 70.0826C57.0534 68.5781 56.5168 66.8094 56.5168 65C56.5196 62.5745 57.4844 60.2492 59.1994 58.5342C60.9145 56.8191 63.2398 55.8544 65.6653 55.8516Z" fill="#5F6975"/>
    <path d="M91.5707 83.7109C91.4973 82.7916 91.1375 81.9183 90.5418 81.2141C89.9462 80.5099 89.1449 80.0102 88.2504 79.7852C88.2504 79.7508 88.2504 79.7164 88.2504 79.6824C88.2489 78.5797 87.832 77.5181 87.0828 76.709C86.3336 75.8999 85.3071 75.4027 84.2078 75.3164C84.1727 75.1629 84.1297 75.0141 84.0789 74.8672C84.5057 71.6488 84.7334 68.4071 84.7609 65.1606V64.8395C84.7609 56.6277 82.8297 47.3281 82.643 46.4488V42.4637C82.643 42.2824 82.571 42.1085 82.4428 41.9803C82.3146 41.8521 82.1407 41.7801 81.9594 41.7801H50.5817C50.4919 41.78 50.403 41.7977 50.32 41.832C50.237 41.8664 50.1617 41.9167 50.0982 41.9802C50.0347 42.0437 49.9843 42.1191 49.95 42.202C49.9157 42.285 49.898 42.3739 49.8981 42.4637V46.4481C49.7109 47.3293 47.7801 56.6281 47.7801 64.8395V65.1606C47.7801 73.3719 49.7109 82.6707 49.8981 83.5512V87.5356C49.898 87.6253 49.9157 87.7143 49.95 87.7972C49.9843 87.8802 50.0347 87.9556 50.0982 88.0191C50.1617 88.0825 50.237 88.1329 50.32 88.1672C50.403 88.2016 50.4919 88.2192 50.5817 88.2192H93.5363C93.6261 88.2192 93.715 88.2016 93.798 88.1672C93.881 88.1329 93.9563 88.0825 94.0198 88.0191C94.0833 87.9556 94.1337 87.8802 94.168 87.7972C94.2023 87.7143 94.22 87.6253 94.2199 87.5356C94.2238 86.7033 93.9717 85.8901 93.4978 85.2059C93.0239 84.5218 92.3512 83.9999 91.5707 83.7109ZM51.2652 43.1473H81.2758V45.8375H51.2652V43.1473ZM49.1473 64.8395C49.1473 57.5414 50.7039 49.3453 51.1395 47.2047H81.4027C81.8363 49.3453 83.3949 57.5414 83.3949 64.8395V65.1606C83.3774 67.7844 83.2189 70.4053 82.9203 73.0121C82.3202 72.4236 81.5742 72.0053 80.759 71.8003C79.9438 71.5953 79.0887 71.6109 78.2815 71.8455C77.4743 72.0801 76.7441 72.5252 76.1657 73.1353C75.5874 73.7453 75.1818 74.4982 74.9906 75.3168C73.892 75.4044 72.8666 75.9023 72.1184 76.7115C71.3702 77.5207 70.9541 78.5819 70.9527 79.684C70.9527 79.718 70.9527 79.7524 70.9527 79.7867C70.213 79.9737 69.5343 80.3489 68.9827 80.876C68.4311 81.4031 68.0254 82.0641 67.8051 82.7945H51.1379C50.7039 80.6539 49.1457 72.4578 49.1457 65.1598L49.1473 64.8395ZM51.2652 84.1625H66.761C66.3066 84.4708 65.9197 84.8683 65.6238 85.3307C65.3278 85.7932 65.129 86.311 65.0395 86.8527H51.2652V84.1625ZM73.9356 86.8527C74.0721 86.5102 74.308 86.2164 74.613 86.0092C74.9181 85.802 75.2782 85.6909 75.6469 85.6902C75.8282 85.6902 76.0021 85.6182 76.1303 85.49C76.2585 85.3618 76.3305 85.188 76.3305 85.0067C76.3305 84.8254 76.2585 84.6515 76.1303 84.5233C76.0021 84.3951 75.8282 84.3231 75.6469 84.3231C74.9139 84.3242 74.2032 84.5755 73.6325 85.0356C73.0618 85.4956 72.6653 86.1367 72.5086 86.8527H66.4344C66.5583 86.3699 66.8134 85.9308 67.1715 85.5841C67.5296 85.2374 67.9767 84.9965 68.4633 84.8883C68.6201 84.8527 68.7593 84.7629 68.8566 84.6348C68.9538 84.5068 69.0028 84.3485 68.9949 84.1879L68.9902 84.1125C68.9902 84.0875 68.9863 84.0621 68.9863 84.0367C68.9899 83.2816 69.2758 82.5551 69.7877 82C70.2997 81.4449 71.0007 81.1013 71.7531 81.0367C71.8485 81.0291 71.9411 81.0015 72.0251 80.9558C72.1091 80.9101 72.1826 80.8473 72.2408 80.7714C72.299 80.6955 72.3406 80.6083 72.363 80.5153C72.3854 80.4223 72.388 80.3257 72.3707 80.2317C72.3363 80.0514 72.3187 79.8683 72.318 79.6848C72.3188 78.8859 72.6365 78.1199 73.2015 77.555C73.7664 76.9901 74.5323 76.6723 75.3313 76.6715C75.3774 76.6715 75.4227 76.675 75.468 76.6781L75.527 76.682C75.704 76.6931 75.8784 76.6349 76.0133 76.5197C76.1483 76.4045 76.2331 76.2414 76.25 76.0649C76.3305 75.2327 76.718 74.4603 77.337 73.8984C77.9559 73.3364 78.762 73.025 79.5981 73.025C80.4341 73.025 81.2402 73.3364 81.8591 73.8984C82.4781 74.4603 82.8656 75.2327 82.9461 76.0649C82.9627 76.242 83.0478 76.4056 83.1833 76.5209C83.3188 76.6362 83.494 76.694 83.6715 76.682L83.7223 76.6785C83.7715 76.675 83.8207 76.6711 83.8707 76.6711C84.3133 76.6693 84.7508 76.7653 85.1519 76.9525C85.553 77.1396 85.9077 77.4131 86.1907 77.7534C86.4736 78.0938 86.6778 78.4925 86.7886 78.921C86.8993 79.3495 86.9139 79.7972 86.8313 80.232C86.8139 80.3261 86.8165 80.4227 86.8388 80.5157C86.8611 80.6086 86.9027 80.6959 86.9609 80.7718C87.0191 80.8477 87.0925 80.9105 87.1765 80.9562C87.2605 81.0019 87.3531 81.0295 87.4485 81.0371C88.2009 81.1017 88.902 81.4452 89.414 82.0003C89.926 82.5554 90.212 83.2819 90.2156 84.0371C90.2156 84.0621 90.2156 84.0863 90.2121 84.111L90.207 84.1891C90.1992 84.3496 90.2481 84.5078 90.3453 84.6359C90.4424 84.764 90.5816 84.8538 90.7383 84.8895C91.2249 84.9977 91.672 85.2385 92.0301 85.5852C92.3882 85.932 92.6433 86.3711 92.7672 86.8539L73.9356 86.8527Z" fill="#5F6975"/>
    <path d="M53.9871 50.5078H59.6719C59.8532 50.5078 60.0271 50.4358 60.1553 50.3076C60.2835 50.1794 60.3555 50.0055 60.3555 49.8242C60.3555 49.6429 60.2835 49.469 60.1553 49.3408C60.0271 49.2126 59.8532 49.1406 59.6719 49.1406H53.9871C53.8058 49.1406 53.6319 49.2126 53.5037 49.3408C53.3755 49.469 53.3035 49.6429 53.3035 49.8242C53.3035 50.0055 53.3755 50.1794 53.5037 50.3076C53.6319 50.4358 53.8058 50.5078 53.9871 50.5078Z" fill="#5F6975"/>
    <path d="M62.4145 50.5078H63.9688C64.1501 50.5078 64.3239 50.4358 64.4521 50.3076C64.5803 50.1794 64.6523 50.0055 64.6523 49.8242C64.6523 49.6429 64.5803 49.469 64.4521 49.3408C64.3239 49.2126 64.1501 49.1406 63.9688 49.1406H62.4145C62.2332 49.1406 62.0593 49.2126 61.9311 49.3408C61.8029 49.469 61.7309 49.6429 61.7309 49.8242C61.7309 50.0055 61.8029 50.1794 61.9311 50.3076C62.0593 50.4358 62.2332 50.5078 62.4145 50.5078Z" fill="#5F6975"/>
</svg>