<svg width="145" height="132" viewBox="0 0 145 132" fill="none" xmlns="http://www.w3.org/2000/svg">
    <circle cx="95" cy="50" r="50" fill="#AFCBDA"/>
    <circle cx="74" cy="67" r="65" fill="#F2F2F2"/>
    <circle cx="9" cy="85" r="9" fill="#E6E6E6"/>
    <g clip-path="url(#clip0_0_1)">
        <path d="M61.6617 89.75C65.7168 90.6333 69.8502 91.1079 74 91.1667C78.1498 91.1079 82.2832 90.6333 86.3383 89.75C88.097 91.1462 90.2604 91.9356 92.505 92C93.4933 91.9873 94.35 91.3127 94.5942 90.355C95.2717 88.3792 94.455 84.8633 92.4192 82.9583C93.3604 77.6881 93.889 72.3525 94 67C93.8901 61.6476 93.3626 56.312 92.4225 51.0417C94.4583 49.1367 95.275 45.625 94.5975 43.645C94.3533 42.6873 93.4966 42.0127 92.5083 42C90.2637 42.0644 88.1003 42.8538 86.3417 44.25C82.2855 43.3664 78.1509 42.8918 74 42.8333C69.8502 42.8921 65.7168 43.3667 61.6617 44.25C59.9021 42.8531 57.7374 42.0637 55.4917 42C54.5034 42.0127 53.6467 42.6873 53.4025 43.645C52.725 45.6208 53.5417 49.1367 55.5775 51.0417C54.6374 56.312 54.1099 61.6476 54 67C54.1099 72.3524 54.6374 77.688 55.5775 82.9583C53.5417 84.8633 52.725 88.3792 53.4025 90.355C53.6467 91.3127 54.5034 91.9873 55.4917 92C57.7374 91.9363 59.9021 91.1469 61.6617 89.75ZM54.9792 89.8125C54.68 88.1771 55.0298 86.4894 55.9542 85.1075C56.0067 85.3908 56.0567 85.6617 56.105 85.9175C56.1559 86.2142 56.3628 86.4605 56.6464 86.5616C56.93 86.6627 57.246 86.6031 57.4732 86.4055C57.7004 86.2079 57.8033 85.9032 57.7425 85.6083C56.526 79.4754 55.8315 73.2503 55.6667 67C55.8314 60.7489 56.5258 54.523 57.7425 48.3892C57.8109 47.9445 57.5141 47.5259 57.0719 47.4433C56.6296 47.3607 56.2017 47.644 56.105 48.0833C56.0567 48.3392 56.0067 48.61 55.9542 48.8933C55.0298 47.5114 54.68 45.8238 54.9792 44.1883C55.1567 43.6667 55.3833 43.6667 55.4917 43.6667C56.8777 43.7203 58.2329 44.0909 59.4533 44.75L59.2033 44.8108C58.7684 44.9311 58.5082 45.3756 58.6163 45.8137C58.7244 46.2518 59.1616 46.5243 59.6025 46.4283C64.3125 45.239 69.143 44.592 74 44.5C78.8571 44.5908 83.6879 45.2367 88.3983 46.425C88.8393 46.5209 89.2764 46.2485 89.3845 45.8104C89.4926 45.3723 89.2324 44.9277 88.7975 44.8075L88.5475 44.7467C89.7679 44.0888 91.1229 43.7194 92.5083 43.6667C92.6167 43.6667 92.8417 43.6667 93.0208 44.185C93.32 45.8204 92.9702 47.5081 92.0458 48.89C91.9933 48.6067 91.9433 48.3358 91.895 48.08C91.8441 47.7833 91.6372 47.537 91.3536 47.4359C91.07 47.3348 90.754 47.3944 90.5268 47.592C90.2996 47.7896 90.1967 48.0943 90.2575 48.3892C91.4742 54.523 92.1686 60.7489 92.3333 67C92.1686 73.2511 91.4742 79.477 90.2575 85.6108C90.1967 85.9057 90.2996 86.2104 90.5268 86.408C90.754 86.6056 91.07 86.6652 91.3536 86.5641C91.6372 86.463 91.8441 86.2167 91.895 85.92C91.9433 85.6642 91.9933 85.3933 92.0458 85.11C92.9702 86.4919 93.32 88.1796 93.0208 89.815C92.8433 90.3333 92.6167 90.3333 92.5083 90.3333C91.1223 90.2797 89.7671 89.9091 88.5467 89.25L88.7967 89.1892C89.2316 89.0689 89.4918 88.6244 89.3837 88.1863C89.2756 87.7482 88.8384 87.4757 88.3975 87.5717C83.6875 88.761 78.857 89.408 74 89.5C69.1429 89.4092 64.3121 88.7633 59.6017 87.575C59.3094 87.4942 58.9963 87.5786 58.7842 87.7952C58.572 88.0119 58.4943 88.3267 58.5813 88.6172C58.6683 88.9077 58.9062 89.128 59.2025 89.1925L59.4525 89.2533C58.2321 89.9112 56.8771 90.2806 55.4917 90.3333C55.3833 90.3333 55.1567 90.3333 54.9792 89.815V89.8125Z" fill="#5F6975"/>
        <path d="M61.5 67C61.5 73.9036 67.0964 79.5 74 79.5C80.9036 79.5 86.5 73.9036 86.5 67C86.5 60.0964 80.9036 54.5 74 54.5C67.0997 54.5078 61.5078 60.0997 61.5 67ZM74 77.8333C71.0825 77.8336 68.289 76.6532 66.2558 74.5608C66.7279 73.9932 67.4284 73.6654 68.1667 73.6667C68.7296 73.6682 69.2746 73.8646 69.7092 74.2225C69.9081 74.3836 70.17 74.4443 70.4195 74.3872C70.669 74.3301 70.8784 74.1616 70.9875 73.93C71.4914 72.8616 72.5202 72.1371 73.6958 72.0225C73.5804 72.4686 73.4279 72.9043 73.24 73.325C73.1135 73.5972 73.1432 73.9165 73.3178 74.1607C73.4923 74.405 73.7848 74.5364 74.0833 74.5049C74.3818 74.4733 74.6403 74.2837 74.76 74.0083C75.008 73.4558 75.2058 72.8821 75.3508 72.2942C76.0814 72.6249 76.6704 73.2048 77.0125 73.93C77.1216 74.1616 77.331 74.3301 77.5805 74.3872C77.83 74.4443 78.0919 74.3836 78.2908 74.2225C78.7254 73.8646 79.2704 73.6682 79.8333 73.6667C80.5716 73.6654 81.2721 73.9932 81.7442 74.5608C79.711 76.6532 76.9175 77.8336 74 77.8333ZM74.6025 64.285C74.5473 63.4101 74.8386 62.5486 75.4133 61.8867C76.2217 61.1842 77.74 61.3617 78.3633 61.47C78.3894 61.4837 78.4086 61.5075 78.4167 61.5358C78.4392 62.1642 78.4042 63.7025 77.6117 64.3942C76.8192 65.0858 75.3017 64.9158 74.7333 64.8217L74.6025 64.285ZM73.115 65.2192C72.5758 65.6142 71.3492 66.39 70.365 66.1492C69.4168 65.7407 68.6818 64.9555 68.3367 63.9825C68.3299 63.949 68.3368 63.9142 68.3558 63.8858C69.0436 63.3244 69.878 62.9722 70.76 62.8708C70.8968 62.8702 71.0331 62.8864 71.1658 62.9192C71.9733 63.2506 72.6227 63.8794 72.98 64.6758L73.115 65.2192ZM84.8333 67C84.8336 69.2476 84.1299 71.4388 82.8208 73.2658C82.0386 72.4551 80.9599 71.9981 79.8333 72C79.2136 72.0017 78.6024 72.1442 78.0458 72.4167C77.4423 71.5848 76.5991 70.9571 75.6292 70.6175C75.7372 69.2541 75.6187 67.8822 75.2783 66.5575C75.445 66.5692 75.6117 66.5842 75.7917 66.5842C76.8442 66.6334 77.8793 66.3028 78.7083 65.6525C79.9925 64.5258 80.125 62.555 80.0833 61.4758C80.0424 60.6612 79.4471 59.9814 78.645 59.8333C77.5883 59.6467 75.62 59.5 74.3167 60.6358C73.827 61.0864 73.4648 61.6581 73.2667 62.2933C72.7997 61.8185 72.2142 61.4773 71.5708 61.305C70.0042 60.9075 68.415 61.7642 67.3583 62.555C66.7071 63.0598 66.4887 63.9463 66.8308 64.6958C67.3967 65.8858 68.4008 67.3858 69.9675 67.7725C70.2307 67.837 70.5007 67.8694 70.7717 67.8692C71.7988 67.818 72.7906 67.4774 73.6325 66.8867C73.9256 68.0129 74.0381 69.1785 73.9658 70.34C72.3732 70.3578 70.8836 71.1311 69.9525 72.4233C69.397 72.1488 68.7863 72.004 68.1667 72C67.0401 71.9981 65.9614 72.4551 65.1792 73.2658C62.4702 69.4529 62.5159 64.3315 65.2925 60.5675C68.069 56.8035 72.9486 55.2478 77.3914 56.7103C81.8341 58.1728 84.8355 62.3227 84.8333 67Z" fill="#5F6975"/>
        <path d="M59.9167 52.7858C64.4412 51.1874 69.2015 50.3584 74 50.3333C78.7985 50.3584 83.5588 51.1874 88.0833 52.7858C88.3641 52.885 88.6764 52.8268 88.9026 52.6332C89.1289 52.4397 89.2347 52.1401 89.1801 51.8474C89.1256 51.5547 88.9191 51.3133 88.6383 51.2141C79.174 47.8333 68.831 47.8333 59.3667 51.2141C58.9327 51.3674 58.7051 51.8435 58.8583 52.2775C59.0116 52.7115 59.4877 52.9391 59.9217 52.7858H59.9167Z" fill="#5F6975"/>
        <path d="M59.3642 82.7858C64.0626 84.4606 69.0121 85.3221 74 85.3333C78.9879 85.3221 83.9374 84.4606 88.6358 82.7858C89.0698 82.6326 89.2974 82.1565 89.1442 81.7225C88.9909 81.2885 88.5148 81.0609 88.0808 81.2142C83.5571 82.8123 78.7976 83.6413 74 83.6667C69.2015 83.6416 64.4412 82.8126 59.9167 81.2142C59.4827 81.0609 59.0066 81.2885 58.8533 81.7225C58.7001 82.1565 58.9277 82.6326 59.3617 82.7858H59.3642Z" fill="#5F6975"/>
    </g>
    <defs>
        <clipPath id="clip0_0_1">
            <rect width="50" height="50" fill="white" transform="translate(49 42)"/>
        </clipPath>
    </defs>
</svg>