<svg width="132" height="132" viewBox="0 0 132 132" fill="none" xmlns="http://www.w3.org/2000/svg">
    <circle cx="50" cy="50" r="50" fill="#AFCBDA"/>
    <circle cx="67" cy="66" r="65" fill="#F2F2F2"/>
    <circle cx="83" cy="123" r="9" fill="#E6E6E6"/>
    <path d="M67.8982 61.1325C68.9607 61.5813 71.1399 62.3375 73.7651 62.3375C75.4397 62.3375 77.2958 62.0295 79.1574 61.1372C84.092 58.7722 87.456 53.0907 89.1559 44.2513C89.2064 43.988 89.1418 43.7159 88.9785 43.5036C88.815 43.2913 88.5684 43.159 88.3012 43.1407C78.2469 42.4457 71.4765 44.3281 68.1759 48.7306C65.0322 52.9235 66.091 58.0076 66.5807 59.7201C64.9481 62.2272 63.8736 64.6147 63.1703 66.7218C62.4726 64.7817 61.343 63.3271 60.0799 62.2371C60.0842 60.9913 59.8246 58 57.4507 55.8329C54.9537 53.5534 50.9607 52.9328 45.583 53.9894C45.3202 54.0411 45.092 54.2028 44.9563 54.4339C44.8206 54.6651 44.7906 54.9432 44.8735 55.1977C46.7736 61.0262 49.4077 64.4247 52.7031 65.2992C53.2852 65.4537 53.8511 65.5193 54.3929 65.5193C56.5143 65.5193 58.2589 64.5145 59.1388 63.8909C61.0564 65.6945 62.0303 68.1475 62.0303 71.217C62.0303 71.2875 62.0395 71.3556 62.0543 71.4216C61.8011 73.1872 61.7719 74.6777 61.8185 75.7877C60.9019 75.2523 59.8514 74.9608 58.7545 74.9608C56.6359 74.9608 54.6803 76.0699 53.581 77.8422C53.2813 77.7934 52.9771 77.7686 52.6708 77.7686C49.5743 77.7686 47.0551 80.2879 47.0551 83.3843C47.0549 86.4808 49.574 89 52.6706 89H79.8132C82.9097 89 85.4288 86.4808 85.4288 83.3843C85.4288 80.2879 82.9097 77.7686 79.8132 77.7686C78.6824 77.7686 77.5852 78.1155 76.6649 78.7372C75.6706 75.4578 72.6141 73.0889 69.0497 73.0889C67.017 73.0889 65.1183 73.8525 63.6778 75.1741C63.6585 73.8199 63.768 71.9655 64.2533 69.797C64.7827 67.431 65.8344 64.4069 67.8982 61.1325ZM69.6736 49.8535C72.4577 46.1396 78.319 44.491 87.1053 44.9436C85.4758 52.556 82.5382 57.4311 78.366 59.4408C74.5745 61.2671 70.6765 60.1897 68.9715 59.5404C70.46 57.4673 72.3665 55.3232 74.8105 53.2052C75.2011 52.8667 75.2433 52.2757 74.9048 51.8849C74.5664 51.4949 73.9752 51.4519 73.5846 51.7908C71.3363 53.7393 69.5191 55.7133 68.0469 57.6445C67.737 55.6373 67.6998 52.486 69.6736 49.8535ZM52.5858 60.9176C52.6095 60.92 54.9771 61.1486 57.3422 62.5462C57.4182 62.5912 57.4891 62.6398 57.5632 62.6859C56.5899 63.27 54.9607 63.9612 53.1829 63.49C50.756 62.8458 48.6304 60.1391 47.0033 55.6377C51.2105 54.9713 54.2927 55.496 56.1747 57.203C57.3839 58.2996 57.8792 59.722 58.078 60.8357C55.4051 59.3245 52.8092 59.0585 52.7555 59.0537C52.2406 59.0057 51.7853 59.3863 51.7386 59.901C51.6917 60.4157 52.0711 60.8708 52.5858 60.9176ZM63.8971 77.8128C65.006 76.042 66.9333 74.9608 69.0497 74.9608C72.2525 74.9608 74.9194 77.4616 75.1211 80.654C75.1459 81.0461 75.4126 81.3809 75.7892 81.4923C76.1659 81.6038 76.5721 81.4686 76.8063 81.1534C77.5212 80.1919 78.6172 79.6405 79.8132 79.6405C81.8775 79.6405 83.5569 81.32 83.5569 83.3843C83.5569 85.4487 81.8775 87.1281 79.8132 87.1281H52.6706C50.6063 87.1281 48.9269 85.4487 48.9269 83.3843C48.9269 81.32 50.6063 79.6405 52.6706 79.6405C53.052 79.6405 53.4276 79.6974 53.7868 79.8096C54.2376 79.9501 54.7224 79.7333 54.9177 79.3034C55.6002 77.8024 57.106 76.8326 58.7543 76.8326C60.0506 76.8326 61.2558 77.4167 62.0607 78.4351C62.2583 78.6851 62.5693 78.8195 62.887 78.7861C63.0408 78.7709 63.1853 78.7177 63.3104 78.6352C63.6523 78.4995 63.8792 78.1757 63.8971 77.8128Z" fill="#5F6975"/>
</svg>