<svg width="109" height="53" viewBox="0 0 109 53" fill="none" xmlns="http://www.w3.org/2000/svg">
<path d="M11.8701 44.9597C14.5888 44.9597 16.4149 44.3006 17.3492 42.9813C18.2822 41.6631 18.749 39.2985 18.749 35.8895C18.749 30.4108 17.0449 27.6714 13.6356 27.6714C12.0123 27.6714 10.4703 27.8749 9.00929 28.2801L8.15679 28.4629V44.7162C10.0231 44.8791 11.2615 44.9597 11.8701 44.9597ZM14.7314 20.3663C18.9928 20.3663 22.1069 21.5336 24.0757 23.8666C26.0437 26.2009 27.0281 30.3709 27.0281 36.3766C27.0281 42.3832 25.8913 46.5332 23.6191 48.8253C21.3458 51.1186 17.4297 52.2647 11.8701 52.2647C10.125 52.2647 6.93948 52.0612 2.31319 51.6561L0 51.4123V11.1546L8.15679 8.98291V22.0102C10.7537 20.9144 12.9452 20.3663 14.7314 20.3663Z" fill="white"/>
<path d="M40.9002 51.4603H32.743V2.21376L40.9002 0V33.0218L44.2061 32.144L50.0312 21.023H59.1627L51.2489 35.4504L59.5889 51.4603H50.3965L44.0174 39.1438L40.9002 40.0111V51.4603Z" fill="white"/>
<path d="M72.2506 51.5342H64.0937V20.9934H72.1896V22.8012C74.9903 21.1787 77.3843 20.3662 79.3732 20.3662C82.6603 20.3662 85.1961 21.3202 86.9822 23.2274C90.7155 21.3202 94.1249 20.3662 97.2096 20.3662C101.227 20.3662 104.017 21.5335 105.58 23.8666C107.142 26.2009 107.923 29.924 107.923 35.037V51.5342H99.7661V35.2808C99.7661 32.6839 99.4817 30.7666 98.9137 29.5282C98.3452 28.2905 97.2096 27.6713 95.5051 27.6713C94.2057 27.6713 92.6228 27.9557 90.7565 28.5237L89.8435 28.8281C90.0049 31.8718 90.0869 34.1849 90.0869 35.7676V51.5342H81.9298V35.8894C81.9298 32.8868 81.6653 30.7666 81.1382 29.5282C80.6105 28.2905 79.4541 27.6713 77.6687 27.6713C76.0857 27.6713 74.5231 27.9557 72.981 28.5237L72.2506 28.7672V51.5342Z" fill="white"/>
</svg>
