<svg width="24" height="24" viewBox="0 0 24 24" fill="none" xmlns="http://www.w3.org/2000/svg">
    <path fill-rule="evenodd" clip-rule="evenodd" d="M4.8557 11.1H7.52808C7.55282 10.7576 7.59348 10.4209 7.6485 10.0904C7.96951 8.16249 8.77211 6.48765 9.68947 5.17874C7.11988 6.04883 5.20111 8.3301 4.8557 11.1ZM12 5.16625C10.9154 6.35057 9.79087 8.18307 9.42406 10.3861C9.38525 10.6192 9.35476 10.8572 9.33373 11.1H14.6663C14.6452 10.8572 14.6148 10.6192 14.5759 10.3861C14.2091 8.18307 13.0846 6.35057 12 5.16625ZM14.6417 12.9H9.3583C9.56241 14.6886 10.3255 16.6608 12 18.7231C13.6745 16.6608 14.4376 14.6886 14.6417 12.9ZM9.86305 18.8776C8.42364 16.8171 7.72838 14.7945 7.54839 12.9H4.8557C5.20884 15.7319 7.2066 18.0531 9.86305 18.8776ZM14.137 18.8776C15.5764 16.8171 16.2716 14.7945 16.4516 12.9H19.1443C18.7912 15.7319 16.7934 18.0531 14.137 18.8776ZM19.1443 11.1H16.4719C16.4472 10.7576 16.4065 10.4209 16.3515 10.0904C16.0305 8.16249 15.2279 6.48765 14.3105 5.17874C16.8801 6.04883 18.7989 8.3301 19.1443 11.1ZM3 12C3 7.02944 7.02944 3 12 3C16.9706 3 21 7.02944 21 12C21 16.9706 16.9706 21 12 21C7.02944 21 3 16.9706 3 12Z" fill="#5F6975"/>
</svg>