<svg width="109" height="53" viewBox="0 0 109 53" fill="none" xmlns="http://www.w3.org/2000/svg">
<path d="M11.8701 44.9595C14.5888 44.9595 16.4149 44.3004 17.3492 42.9811C18.2822 41.6629 18.749 39.2983 18.749 35.8892C18.749 30.4105 17.0449 27.6711 13.6356 27.6711C12.0123 27.6711 10.4703 27.8746 9.00929 28.2799L8.15679 28.4627V44.716C10.0231 44.8789 11.2615 44.9595 11.8701 44.9595ZM14.7314 20.366C18.9928 20.366 22.1069 21.5334 24.0757 23.8664C26.0437 26.2007 27.0281 30.3706 27.0281 36.3764C27.0281 42.383 25.8913 46.533 23.6191 48.8251C21.3458 51.1183 17.4297 52.2645 11.8701 52.2645C10.125 52.2645 6.93948 52.061 2.31319 51.6559L0 51.4121V11.1544L8.15679 8.98267V22.0099C10.7537 20.9142 12.9452 20.366 14.7314 20.366Z" fill="#5F6975"/>
<path d="M40.9002 51.4603H32.743V2.21376L40.9002 0V33.0218L44.2061 32.144L50.0312 21.023H59.1627L51.2489 35.4504L59.5889 51.4603H50.3965L44.0174 39.1438L40.9002 40.0111V51.4603Z" fill="#5F6975"/>
<path d="M72.2506 51.534H64.0937V20.9932H72.1896V22.8011C74.9903 21.1785 77.3843 20.366 79.3732 20.366C82.6603 20.366 85.1961 21.32 86.9822 23.2273C90.7155 21.32 94.1249 20.366 97.2096 20.366C101.227 20.366 104.017 21.5334 105.58 23.8664C107.142 26.2007 107.923 29.9238 107.923 35.0368V51.534H99.7661V35.2806C99.7661 32.6837 99.4817 30.7664 98.9137 29.528C98.3452 28.2903 97.2096 27.6711 95.5051 27.6711C94.2057 27.6711 92.6228 27.9555 90.7565 28.5235L89.8435 28.8279C90.0049 31.8716 90.0869 34.1847 90.0869 35.7674V51.534H81.9298V35.8892C81.9298 32.8866 81.6653 30.7664 81.1382 29.528C80.6105 28.2903 79.4541 27.6711 77.6687 27.6711C76.0857 27.6711 74.5231 27.9555 72.981 28.5235L72.2506 28.767V51.534Z" fill="#5F6975"/>
</svg>
