<svg width="24" height="24" viewBox="0 0 24 24" fill="none" xmlns="http://www.w3.org/2000/svg">
    <path fill-rule="evenodd" clip-rule="evenodd" d="M7.7587 4H16.2413C17.0463 3.99999 17.7106 3.99998 18.2518 4.04419C18.8139 4.09012 19.3306 4.18868 19.816 4.43597C20.5686 4.81947 21.1805 5.43139 21.564 6.18404C21.8113 6.66937 21.9099 7.18608 21.9558 7.74817C21.9603 7.80296 21.9643 7.85902 21.9679 7.91635C21.9691 7.9308 21.97 7.94525 21.9706 7.9597C22 8.45985 22 9.05564 22 9.75868V14.2413C22 15.0463 22 15.7106 21.9558 16.2518C21.9099 16.8139 21.8113 17.3306 21.564 17.816C21.1805 18.5686 20.5686 19.1805 19.816 19.564C19.3306 19.8113 18.8139 19.9099 18.2518 19.9558C17.7106 20 17.0463 20 16.2413 20H7.75872C6.95374 20 6.28938 20 5.74817 19.9558C5.18608 19.9099 4.66937 19.8113 4.18404 19.564C3.43139 19.1805 2.81947 18.5686 2.43597 17.816C2.18868 17.3306 2.09012 16.8139 2.04419 16.2518C1.99998 15.7106 1.99999 15.0463 2 14.2413V9.7587C1.99999 9.05577 1.99998 8.46007 2.02942 7.95996C2.02999 7.94551 2.03087 7.93106 2.03206 7.91661C2.03568 7.85919 2.03971 7.80305 2.04419 7.74818C2.09012 7.18608 2.18868 6.66937 2.43597 6.18404C2.81947 5.43139 3.43139 4.81947 4.18404 4.43597C4.66937 4.18868 5.18608 4.09012 5.74817 4.04419C6.28937 3.99998 6.95373 3.99999 7.7587 4ZM4 9.75916C4 9.77271 4 9.78632 4 9.8V14.2C4 15.0566 4.00078 15.6389 4.03755 16.089C4.07337 16.5274 4.1383 16.7516 4.21799 16.908C4.40973 17.2843 4.7157 17.5903 5.09202 17.782C5.24842 17.8617 5.47262 17.9266 5.91104 17.9624C6.36113 17.9992 6.94342 18 7.8 18H16.2C17.0566 18 17.6389 17.9992 18.089 17.9624C18.5274 17.9266 18.7516 17.8617 18.908 17.782C19.2843 17.5903 19.5903 17.2843 19.782 16.908C19.8617 16.7516 19.9266 16.5274 19.9624 16.089C19.9992 15.6389 20 15.0566 20 14.2V9.8C20 9.78902 20 9.77808 20 9.76719C19.563 10.0264 19.0549 10.3212 18.5088 10.6252C16.8714 11.537 14.7668 12.6049 13.233 12.9725C12.8851 13.0559 12.4039 13.0826 12 13.0826C11.5961 13.0826 11.1149 13.0559 10.767 12.9725C9.28347 12.617 7.17709 11.5479 5.53092 10.6353C4.97049 10.3246 4.44792 10.0231 4 9.75916ZM19.9078 7.48575C19.8141 7.54356 19.7093 7.60781 19.5947 7.67752C19.0712 7.99605 18.3454 8.42712 17.5359 8.87786C15.8789 9.80049 13.9979 10.7325 12.767 11.0275C12.6554 11.0543 12.3663 11.0826 12 11.0826C11.6337 11.0826 11.3446 11.0543 11.233 11.0275C10.0536 10.7449 8.17433 9.81396 6.50063 8.8861C5.68405 8.43341 4.94815 7.99965 4.41616 7.67889C4.29767 7.60744 4.18941 7.54167 4.09276 7.48263C4.12699 7.30602 4.16979 7.18662 4.21799 7.09202C4.40973 6.7157 4.7157 6.40973 5.09202 6.21799C5.24842 6.1383 5.47262 6.07337 5.91104 6.03755C6.36113 6.00078 6.94342 6 7.8 6H16.2C17.0566 6 17.6389 6.00078 18.089 6.03755C18.5274 6.07337 18.7516 6.1383 18.908 6.21799C19.2843 6.40973 19.5903 6.7157 19.782 7.09202C19.8305 7.18718 19.8735 7.30743 19.9078 7.48575Z" fill="#5F6975"/>
</svg>