<svg width="71" height="23" viewBox="0 0 71 23" fill="none" xmlns="http://www.w3.org/2000/svg">
    <path d="M10.5893 13.1929L8.55423 5.24707H5.70615V16.2378H7.88409V13.2631L7.68699 8.68324L9.8403 16.2378H11.3235L13.4817 8.68324L13.2797 13.2631V16.2378H15.4675V5.24707H12.6194L10.5893 13.1929Z" fill="#AFCBDA"/>
    <path d="M18.8873 5.24707H16.7093V16.2328H18.8873V5.24707Z" fill="#AFCBDA"/>
    <path d="M19.4096 5.24707V7.09809H22.031V16.2378H24.2188V7.09809H26.8895V5.24707H19.4096Z" fill="#AFCBDA"/>
    <path d="M29.4564 7.59395C29.5915 7.37653 29.782 7.20055 30.0076 7.08481C30.2333 6.96906 30.4856 6.91791 30.7376 6.93682C30.9321 6.9197 31.1281 6.94483 31.3124 7.01055C31.4967 7.07627 31.6653 7.18108 31.8068 7.31806C32.0891 7.73917 32.2387 8.23787 32.2355 8.7477H34.3543C34.2591 7.49028 33.9141 6.56728 33.3196 5.9787C32.585 5.33984 31.6321 5.02249 30.6686 5.09583C30.1339 5.06101 29.5985 5.1535 29.105 5.36596C28.6115 5.57841 28.1734 5.905 27.8254 6.31981C27.1684 7.1358 26.8399 8.30627 26.8399 9.83122V11.8076C26.8596 13.3025 27.2128 14.4412 27.8993 15.2238C28.2677 15.623 28.7177 15.935 29.2174 16.1378C29.7172 16.3407 30.2546 16.4293 30.7918 16.3976C31.4756 16.405 32.1551 16.286 32.7973 16.0464C33.3866 15.8277 33.9168 15.4702 34.3445 15.003V10.4884H30.639V12.1638H32.1665V14.1703L31.9744 14.3058C31.6588 14.4955 31.2959 14.5879 30.9297 14.5716C30.6508 14.5968 30.3702 14.5471 30.116 14.4274C29.8618 14.3076 29.6428 14.1222 29.4811 13.8894C29.1376 13.2179 28.9841 12.4625 29.0376 11.7073V9.7008C28.9946 8.97337 29.1389 8.24711 29.4564 7.59395Z" fill="white"/>
    <path d="M41.8836 8.56721C41.9121 8.11678 41.8475 7.66527 41.6939 7.24187C41.5402 6.81846 41.301 6.4326 40.9917 6.10923C40.2911 5.49486 39.3817 5.18503 38.459 5.24642H34.9851V16.2321H37.1631V12.2191H38.2471L39.8682 16.2321H42.2088V16.1268L40.3166 11.6121C41.3613 11.0436 41.8836 10.0286 41.8836 8.56721ZM39.3903 9.93165C39.274 10.0816 39.1233 10.2003 38.9515 10.2773C38.7797 10.3542 38.592 10.3871 38.4048 10.3731H37.1729V7.09744H38.4343C39.2786 7.09744 39.7007 7.64756 39.7007 8.7478C39.7273 9.16637 39.6182 9.58226 39.3903 9.93165Z" fill="white"/>
    <path d="M46.1852 5.09635C45.6442 5.06851 45.1041 5.16861 44.6074 5.3888C44.1107 5.60898 43.6709 5.94327 43.3223 6.36547C42.5877 7.37806 42.2234 8.62002 42.2925 9.87689V11.758C42.2266 12.9915 42.607 14.2068 43.3618 15.1741C43.7187 15.5793 44.1602 15.8982 44.6538 16.1074C45.1475 16.3165 45.6808 16.4107 46.2148 16.383C46.7494 16.411 47.2834 16.3154 47.7767 16.1035C48.2699 15.8915 48.7096 15.5686 49.0628 15.1591C49.7991 14.1783 50.163 12.9599 50.0878 11.7279V9.85181C50.1561 8.59111 49.7824 7.34667 49.0333 6.34039C48.6831 5.92572 48.2445 5.59806 47.7508 5.38244C47.2572 5.16682 46.7217 5.06896 46.1852 5.09635ZM47.8901 11.7981C47.9335 12.5149 47.7871 13.2303 47.4663 13.8699C47.335 14.0886 47.1479 14.2671 46.925 14.3864C46.702 14.5056 46.4515 14.5611 46.2 14.5471C45.9421 14.5637 45.6847 14.509 45.4549 14.3889C45.225 14.2688 45.0313 14.0878 44.8942 13.8648C44.5682 13.2092 44.4218 12.4762 44.4704 11.743V9.78659C44.4324 9.05359 44.58 8.32293 44.8991 7.6647C45.0402 7.4476 45.2324 7.26989 45.4582 7.14776C45.684 7.02562 45.9362 6.96295 46.1919 6.96544C46.4476 6.96793 46.6986 7.03552 46.922 7.16203C47.1455 7.28855 47.3343 7.46997 47.4713 7.68978C47.7906 8.37974 47.933 9.14082 47.8852 9.90197L47.8901 11.7981Z" fill="white"/>
    <path d="M55.8775 12.8463C55.9101 13.2998 55.807 13.7527 55.5819 14.1455C55.4469 14.2926 55.2797 14.4051 55.0939 14.4739C54.9081 14.5428 54.7089 14.566 54.5126 14.5418C54.3152 14.565 54.1152 14.5408 53.9287 14.4711C53.7421 14.4014 53.5742 14.2882 53.4384 14.1405C53.207 13.7374 53.1037 13.2713 53.1428 12.8062V5.24658H50.9501V12.8011C50.9177 13.2852 50.9822 13.7709 51.1397 14.2287C51.2973 14.6866 51.5446 15.1071 51.8666 15.4648C52.6208 16.0583 53.5471 16.3802 54.5003 16.3802C55.4536 16.3802 56.3798 16.0583 57.134 15.4648C57.4541 15.1136 57.7011 14.7001 57.8603 14.2493C58.0194 13.7985 58.0875 13.3195 58.0604 12.8413V5.24658H55.8775V12.8463Z" fill="white"/>
    <path d="M65.3333 6.2598C65.0002 5.92045 64.601 5.65587 64.1614 5.48308C63.7218 5.31028 63.2515 5.23312 62.7808 5.25654H59.1049V16.2422H61.2829V12.3797H62.7365C63.2112 12.4079 63.6867 12.3394 64.1351 12.1784C64.5835 12.0173 64.9958 11.7668 65.3481 11.4416C65.6689 11.1058 65.9181 10.7061 66.08 10.2676C66.242 9.82904 66.3132 9.3612 66.2892 8.89336C66.3092 8.4118 66.2351 7.931 66.0709 7.47889C65.9068 7.02678 65.6561 6.61239 65.3333 6.2598ZM63.7417 10.1073C63.6207 10.2502 63.4686 10.3622 63.2975 10.4345C63.1264 10.5068 62.941 10.5373 62.7562 10.5237H61.278V7.09752H62.7956C62.9802 7.096 63.1623 7.141 63.3257 7.22853C63.489 7.31606 63.6286 7.44339 63.7318 7.59915C63.9822 7.98664 64.1047 8.44523 64.0817 8.90841C64.1093 9.3362 63.9891 9.76034 63.7417 10.1073Z" fill="white"/>
    <path d="M69.2064 0H0V22.152H71V0H69.2064ZM69.2064 20.321H1.79853V1.83095H69.2064V20.321Z" fill="white"/>
</svg>
