<svg width="50" height="50" viewBox="0 0 50 50" fill="none" xmlns="http://www.w3.org/2000/svg">
    <path fill-rule="evenodd" clip-rule="evenodd" d="M13.4835 17.9193C10.209 20.6522 7.91747 23.8638 6.75951 25.6973C6.68268 25.8189 6.62894 25.9042 6.58403 25.9781C6.5544 26.0269 6.53483 26.0607 6.52175 26.0842C6.52175 26.0851 6.52175 26.086 6.52175 26.0869C6.52175 26.0877 6.52175 26.0886 6.52175 26.0895C6.53483 26.113 6.5544 26.1468 6.58403 26.1956C6.62894 26.2696 6.68268 26.3548 6.75951 26.4764C7.91747 28.31 10.209 31.5215 13.4835 34.2545C16.753 36.9832 20.8714 39.1303 25.7482 39.1303C30.625 39.1303 34.7434 36.9832 38.0128 34.2545C41.2873 31.5215 43.5789 28.31 44.7368 26.4764C44.8137 26.3548 44.8674 26.2696 44.9123 26.1956C44.9419 26.1468 44.9615 26.113 44.9746 26.0895C44.9746 26.0886 44.9746 26.0877 44.9746 26.0869C44.9746 26.086 44.9746 26.0851 44.9746 26.0842C44.9615 26.0607 44.9419 26.0269 44.9123 25.9781C44.8674 25.9042 44.8137 25.8189 44.7368 25.6973C43.5789 23.8638 41.2873 20.6522 38.0128 17.9193C34.7434 15.1906 30.625 13.0434 25.7482 13.0434C20.8714 13.0434 16.753 15.1906 13.4835 17.9193ZM10.6976 14.5813C14.4554 11.4449 19.5271 8.69556 25.7482 8.69556C31.9692 8.69556 37.0409 11.4449 40.7987 14.5813C44.5514 17.7133 47.1243 21.3353 48.4129 23.3757C48.4299 23.4026 48.4474 23.4301 48.4653 23.4582C48.721 23.8607 49.053 24.3833 49.2208 25.1155C49.3563 25.7067 49.3563 26.467 49.2208 27.0582C49.053 27.7904 48.721 28.313 48.4653 28.7155C48.4474 28.7436 48.4299 28.7711 48.4129 28.7981C47.1243 30.8384 44.5514 34.4604 40.7987 37.5924C37.0409 40.7288 31.9692 43.4782 25.7482 43.4782C19.5271 43.4782 14.4554 40.7288 10.6976 37.5924C6.9449 34.4604 4.372 30.8384 3.08342 28.7981C3.0664 28.7711 3.04892 28.7436 3.03107 28.7155C2.77537 28.313 2.44338 27.7904 2.27555 27.0582C2.14004 26.467 2.14004 25.7067 2.27555 25.1155C2.44338 24.3833 2.77537 23.8607 3.03107 23.4582C3.04892 23.4301 3.0664 23.4026 3.08342 23.3757C4.372 21.3353 6.9449 17.7133 10.6976 14.5813ZM25.7482 21.739C23.3469 21.739 21.4003 23.6856 21.4003 26.0869C21.4003 28.4881 23.3469 30.4347 25.7482 30.4347C28.1494 30.4347 30.096 28.4881 30.096 26.0869C30.096 23.6856 28.1494 21.739 25.7482 21.739ZM17.0525 26.0869C17.0525 21.2844 20.9457 17.3912 25.7482 17.3912C30.5506 17.3912 34.4438 21.2844 34.4438 26.0869C34.4438 30.8893 30.5506 34.7825 25.7482 34.7825C20.9457 34.7825 17.0525 30.8893 17.0525 26.0869Z" fill="white"/>
</svg>