<svg width="24" height="24" viewBox="0 0 24 24" fill="none" xmlns="http://www.w3.org/2000/svg">
    <path fill-rule="evenodd" clip-rule="evenodd" d="M4.46181 1.99967C4.49612 1.99984 4.52956 2.00001 4.56201 2.00001H7.37932C7.40707 2.00001 7.43562 1.99989 7.46487 1.99977C7.77404 1.99847 8.16208 1.99684 8.51647 2.13292C8.82222 2.25031 9.09445 2.44099 9.30926 2.68821C9.55826 2.97476 9.68933 3.34 9.79377 3.631C9.80365 3.65853 9.8133 3.68541 9.82278 3.71148L10.9889 6.91832C10.9921 6.92706 10.9953 6.9358 10.9984 6.94454C11.0705 7.14253 11.1419 7.33891 11.1906 7.51198C11.2449 7.70483 11.2912 7.9346 11.2742 8.19664C11.2501 8.56598 11.1241 8.92141 10.9101 9.22337C10.7582 9.4376 10.5775 9.58683 10.4138 9.70239C10.2669 9.80612 10.0877 9.91362 9.90701 10.022L9.31023 10.3801C10.3135 12.1856 11.8147 13.688 13.6197 14.6902L13.978 14.093C14.0864 13.9123 14.1939 13.7331 14.2976 13.5862C14.4132 13.4226 14.5624 13.2418 14.7766 13.09C15.0786 12.8759 15.434 12.7499 15.8034 12.7258C16.0654 12.7088 16.2952 12.7551 16.488 12.8094C16.6611 12.8581 16.8575 12.9296 17.0555 13.0016L20.2885 14.1772C20.3146 14.1867 20.3415 14.1964 20.369 14.2062C20.66 14.3107 21.0253 14.4418 21.3118 14.6908C21.559 14.9056 21.7497 15.1778 21.8671 15.4835C22.0032 15.8379 22.0015 16.226 22.0002 16.5351C22.0001 16.5644 22 16.5929 22 16.6207V19.438C22 19.4705 22.0002 19.5039 22.0003 19.5382C22.0022 19.9074 22.0046 20.3772 21.8015 20.7984C21.6319 21.1501 21.3363 21.4681 20.9979 21.6629C20.5937 21.8957 20.151 21.9259 19.8089 21.9493C19.7789 21.9514 19.7497 21.9534 19.7213 21.9555C19.3179 21.985 18.9106 22 18.5 22C9.3873 22 2 14.6127 2 5.50001C2 5.0894 2.01502 4.68212 2.04456 4.27871C2.04664 4.25036 2.04863 4.22114 2.05068 4.19115C2.07407 3.84903 2.10433 3.40633 2.33708 3.00208C2.53191 2.6637 2.84993 2.36811 3.20164 2.19852C3.62284 1.99541 4.0926 1.9978 4.46181 1.99967ZM4.07721 4.00914C4.07214 4.04121 4.06662 4.0865 4.06041 4.15432C4.05366 4.22807 4.04737 4.3134 4.03922 4.42477C4.01323 4.77962 4 5.13819 4 5.50001C4 13.5081 10.4919 20 18.5 20C18.8618 20 19.2204 19.9868 19.5752 19.9608C19.6866 19.9526 19.7719 19.9464 19.8457 19.9396C19.9135 19.9334 19.9588 19.9279 19.9909 19.9228C19.991 19.9216 19.9911 19.9203 19.9912 19.9191C19.9992 19.8254 20 19.6947 20 19.438V16.6207C20 16.4056 19.9995 16.2934 19.994 16.2124C19.9938 16.2099 19.9936 16.2074 19.9935 16.205C19.9913 16.2041 19.989 16.203 19.9867 16.202C19.9124 16.1692 19.8072 16.1303 19.605 16.0568L16.3982 14.8907C16.1636 14.8054 16.0386 14.7606 15.9462 14.7346C15.9429 14.7337 15.9399 14.7328 15.9369 14.732C15.9352 14.7345 15.9333 14.7371 15.9313 14.7399C15.876 14.8183 15.8071 14.9318 15.6787 15.1459L14.8575 16.5145C14.5962 16.95 14.05 17.1205 13.5874 16.9109C10.716 15.6105 8.39114 13.2822 7.08936 10.4132C6.87941 9.95051 7.04982 9.40393 7.4855 9.14252L8.85414 8.32134C9.06823 8.19289 9.18175 8.12402 9.26015 8.06866C9.2629 8.06672 9.2655 8.06486 9.26797 8.06309C9.26717 8.06015 9.26632 8.05707 9.26541 8.05383C9.23941 7.96144 9.19464 7.83644 9.10931 7.6018L7.94319 4.39497C7.86967 4.19278 7.83086 4.0876 7.79802 4.01335C7.79697 4.01098 7.79596 4.00871 7.79499 4.00656C7.79263 4.00638 7.79016 4.00621 7.78757 4.00603C7.70657 4.00054 7.59446 4.00001 7.37932 4.00001H4.56201C4.30532 4.00001 4.1746 4.00085 4.08094 4.00882C4.07967 4.00893 4.07842 4.00903 4.07721 4.00914Z" fill="#5F6975"/>
</svg>