<svg width="143" height="130" viewBox="0 0 143 130" fill="none" xmlns="http://www.w3.org/2000/svg">
    <circle cx="50" cy="74" r="50" fill="#AFCBDA"/>
    <circle cx="78" cy="65" r="65" fill="#F2F2F2"/>
    <circle cx="134" cy="99" r="9" fill="#E6E6E6"/>
    <g clip-path="url(#clip0_0_1)">
        <path d="M65.0969 60.5043C65.0827 60.1001 64.7423 59.7825 64.3392 59.7983C63.9349 59.8126 63.6188 60.1518 63.6332 60.5561C63.6661 61.4903 63.7931 62.4306 64.0107 63.3506C64.7677 66.5587 66.5429 69.3285 69.1448 71.361C71.677 73.3368 74.8219 74.4249 78.0001 74.4249C79.1074 74.4249 80.2191 74.2947 81.3039 74.0382C89.0176 72.2173 93.8124 64.4597 91.9923 56.7449C91.234 53.5356 89.4584 50.7658 86.8575 48.7348C84.3262 46.7589 81.1813 45.6707 78.002 45.6707C76.896 45.6707 75.7844 45.8009 74.6982 46.0575C70.9694 46.9374 67.8025 49.2237 65.781 52.4954C64.8788 53.9562 64.2497 55.5364 63.9113 57.1923C63.8302 57.5886 64.0859 57.9756 64.4821 58.0565C64.8785 58.1375 65.2653 57.8819 65.3463 57.4856C65.6502 55.9989 66.2157 54.5789 67.0271 53.2652C68.8429 50.3266 71.6868 48.2731 75.0348 47.483C76.0109 47.2524 77.0091 47.1355 78.0019 47.1355C80.8562 47.1355 83.6809 48.1135 85.956 49.8893C88.2915 51.713 89.8858 54.2001 90.5666 57.0814C92.2013 64.0099 87.895 70.9771 80.9669 72.6126C79.9921 72.8431 78.9938 72.9601 77.9999 72.9601C75.1466 72.9601 72.3217 71.9821 70.046 70.2064C67.7098 68.3815 66.1157 65.8944 65.4361 63.0139C65.2407 62.1869 65.1265 61.3426 65.0969 60.5043Z" fill="#5F6975"/>
        <path d="M84.1439 50.5305C82.2955 49.3379 80.1716 48.7075 78.002 48.7075C77.1309 48.7075 76.2543 48.8101 75.3962 49.0123C72.4573 49.7066 69.9598 51.5105 68.3638 54.0918C66.7686 56.6736 66.2724 59.7138 66.9666 62.6524C67.5639 65.1826 68.9633 67.366 71.0136 68.9665C73.0143 70.528 75.4955 71.3879 78 71.3879C78.8728 71.3879 79.7497 71.285 80.6056 71.0822C83.5489 70.3874 86.0478 68.5846 87.6418 66.0057C89.236 63.4269 89.7311 60.3859 89.0364 57.4429C88.6251 55.702 87.8423 54.1355 86.7097 52.7871C86.4497 52.4773 85.9876 52.4371 85.678 52.6972C85.3682 52.9574 85.328 53.4194 85.5881 53.729C86.5721 54.9007 87.2527 56.2635 87.6109 57.7795C88.2157 60.3416 87.7843 62.9895 86.3959 65.2356C85.0075 67.4816 82.8316 69.0516 80.2684 69.6567C79.5225 69.8334 78.7592 69.9231 78 69.9231C75.8204 69.9231 73.6593 69.1732 71.9149 67.8117C70.1302 66.4186 68.9121 64.5181 68.3922 62.3157C67.7879 59.7578 68.2204 57.1106 69.6099 54.8618C71 52.6133 73.1746 51.0421 75.7326 50.4378C76.4804 50.2615 77.2439 50.1722 78.0019 50.1722C79.8893 50.1722 81.7385 50.7217 83.3497 51.7611C83.6897 51.9804 84.1429 51.8828 84.3622 51.5428C84.5814 51.2031 84.4837 50.7498 84.1439 50.5305Z" fill="#5F6975"/>
        <path d="M96.6819 60.0671L98.0224 55.084C98.0904 54.8314 98.0184 54.5616 97.8336 54.3764L94.1883 50.7235L92.8581 45.7377C92.7906 45.4849 92.5934 45.2872 92.3407 45.2191L87.3577 43.8787L83.7124 40.2258C83.5277 40.0406 83.258 39.9681 83.0052 40.0355L78.0193 41.3657L73.0362 40.0251C72.7836 39.9573 72.5138 40.0291 72.3286 40.214L68.6758 43.8593L63.69 45.1895C63.4371 45.2569 63.2395 45.4541 63.1714 45.7068L61.8309 50.6898L58.178 54.3352C57.9928 54.5201 57.9203 54.7896 57.9877 55.0424L59.3179 60.0282L57.9773 65.0113C57.9093 65.264 57.9813 65.5338 58.1662 65.7189L61.8115 69.3717L63.1417 74.3576C63.2091 74.6104 63.4063 74.808 63.659 74.8761L65.5994 75.3981L59.9798 85.1342C59.6578 85.9302 60.0647 86.3372 60.8038 86.2077L65.1957 85.0302L66.3732 89.423C66.5482 90.076 67.3396 90.2106 67.7148 89.5996L73.2645 79.9876L76.6118 79.0939C77.0026 78.9896 77.2348 78.5882 77.1304 78.1974C77.026 77.8066 76.6248 77.5745 76.2339 77.6787L73.0255 78.5354L69.5403 75.0429C69.4495 74.9519 69.3363 74.8864 69.2122 74.853L64.448 73.5713L63.1763 68.8045C63.1432 68.6803 63.0779 68.5669 62.9871 68.4759L59.5018 64.9834L60.7835 60.2192C60.8169 60.095 60.817 59.9643 60.7839 59.8401L59.5121 55.0734L63.0046 51.5881C63.0956 51.4973 63.1611 51.3841 63.1945 51.26L64.4761 46.4958L69.243 45.224C69.3672 45.1909 69.4805 45.1256 69.5716 45.0348L73.064 41.5495L77.8283 42.8312C77.9524 42.8645 78.0831 42.8647 78.2073 42.8316L82.9743 41.5598L86.4595 45.0523C86.5503 45.1433 86.6635 45.2088 86.7876 45.2422L91.5518 46.5239L92.8235 51.2907C92.8566 51.4149 92.9219 51.5283 93.0128 51.6193L96.498 55.1117L95.2163 59.876C95.1829 60.0001 95.1828 60.1309 95.2159 60.255L96.4877 65.022L92.9953 68.5072C92.9043 68.5981 92.8387 68.7112 92.8053 68.8353L91.5237 73.5995L86.7569 74.8713C86.6327 74.9044 86.5193 74.9697 86.4283 75.0606L82.9359 78.5457L79.8054 77.7026C79.4152 77.5977 79.013 77.8288 78.9078 78.2194C78.8027 78.61 79.034 79.0118 79.4246 79.117L82.809 80.0284L88.3347 89.5996C88.6489 90.1438 89.5063 90.1779 89.6764 89.4228L90.853 85.0302L95.2449 86.2076C96.0328 86.3859 96.3908 85.8813 96.0687 85.134L90.4503 75.4019L92.31 74.9057C92.5628 74.8382 92.7604 74.6411 92.8285 74.3883L94.169 69.4053L97.8219 65.7599C98.0071 65.5751 98.0796 65.3056 98.0123 65.0528L96.6819 60.0671ZM69.147 76.7225L66.9464 80.5338C66.4089 81.4645 67.7467 82.0859 68.2149 81.2662L70.2184 77.7961L71.8783 79.4595L67.3305 87.3363L66.4211 83.9435C66.265 83.5233 65.966 83.3507 65.524 83.4258L62.1325 84.335L67.0636 75.792L68.6422 76.2166L69.147 76.7225ZM93.9161 84.335L90.5248 83.4258C90.0828 83.3507 89.7837 83.5233 89.6277 83.9437L88.7192 87.3358L84.1434 79.4102L85.805 77.752L87.8339 81.266C88.4486 82.2359 89.6398 81.4643 89.1023 80.5336L86.8781 76.6812L87.324 76.2361L88.9847 75.793L93.9161 84.335Z" fill="#5F6975"/>
        <path d="M84.2267 58.2735C84.0745 57.805 83.6772 57.47 83.1897 57.3991L80.3996 56.9937L79.1518 54.4654C78.9338 54.0237 78.4925 53.7493 77.9999 53.7493C77.5074 53.7493 77.066 54.0237 76.848 54.4654L75.6003 56.9937L72.8101 57.3991C72.3226 57.47 71.9253 57.805 71.7731 58.2735C71.621 58.7419 71.7456 59.2464 72.0982 59.5902L74.1171 61.5581L73.6405 64.3371C73.5572 64.8225 73.7531 65.3039 74.1516 65.5935C74.5931 65.8856 75.044 65.9182 75.5044 65.6912L77.9999 64.3792L80.4955 65.6911C80.9314 65.9203 81.4497 65.8828 81.8482 65.5935C82.2467 65.304 82.4425 64.8225 82.3593 64.337L81.8827 61.5581L83.9016 59.5902C84.2542 59.2465 84.3788 58.7419 84.2267 58.2735ZM80.5845 60.7781C80.4119 60.9464 80.3332 61.1888 80.3739 61.4264L80.8539 64.2248L78.3408 62.9036C78.1136 62.7915 77.8863 62.7915 77.6592 62.9036L75.1461 64.2248L75.6261 61.4264C75.6668 61.1888 75.5881 60.9464 75.4155 60.7781L73.3823 58.7962L76.1921 58.3879C76.4307 58.3533 76.6368 58.2035 76.7435 57.9873L78.0001 55.4411L79.2567 57.9873C79.3634 58.2034 79.5696 58.3533 79.8081 58.3879L82.6179 58.7962L80.5845 60.7781Z" fill="#5F6975"/>
    </g>
    <defs>
        <clipPath id="clip0_0_1">
            <rect width="50" height="50" fill="white" transform="translate(53 40)"/>
        </clipPath>
    </defs>
</svg>